/* XPM */
static char *_7202_2c3414d8a0b779e8ea9c64c22734a3e47ff87044f2f04688c3fc2fec3d2e9c78[] = {
/* columns rows colors chars-per-pixel */
"64 64 105 2 ",
"   c #0535C8",
".  c #0535C9",
"X  c #0634C9",
"o  c #0734C9",
"O  c #0635C9",
"+  c #0735C9",
"@  c #0536C9",
"#  c #0637C8",
"$  c #0636C9",
"%  c #0736C9",
"&  c #0737C9",
"*  c #0535CA",
"=  c #0635CA",
"-  c #0735CA",
";  c #0736CA",
":  c #0637CA",
">  c #0836CA",
",  c #0638C8",
"<  c #0639C9",
"1  c #073BC8",
"2  c #073AC9",
"3  c #073DC8",
"4  c #073EC8",
"5  c #073FC8",
"6  c #0938C9",
"7  c #0938CA",
"8  c #0A39CA",
"9  c #0B39CA",
"0  c #0D3BCB",
"q  c #0E3BCA",
"w  c #0E3BCB",
"e  c #0740C9",
"r  c #0741C9",
"t  c #0841C8",
"y  c #0842C8",
"u  c #0843C8",
"i  c #0E43C9",
"p  c #0844C8",
"a  c #084AC8",
"s  c #094BC8",
"d  c #1440CC",
"f  c #1845CD",
"g  c #1E49CE",
"h  c #1E4CCE",
"j  c #0951C7",
"k  c #0A55C7",
"l  c #0B5AC7",
"z  c #214CCF",
"x  c #2B54D1",
"c  c #2D55D1",
"v  c #375ED4",
"b  c #0B61C6",
"n  c #0B64C6",
"m  c #0B65C6",
"M  c #0C6BC5",
"N  c #0C6AC6",
"B  c #0C6BC6",
"V  c #0C6CC5",
"C  c #0C6DC5",
"Z  c #0D6FC5",
"A  c #0C6DC6",
"S  c #0D6FC6",
"D  c #466BD7",
"F  c #476CD6",
"G  c #4A6DD7",
"H  c #4A6ED7",
"J  c #4B6ED7",
"K  c #4D6FD8",
"L  c #1BE4BD",
"P  c #1AE5BD",
"I  c #19E6BD",
"U  c #1AE6BD",
"Y  c #19E4BE",
"T  c #1BE4BE",
"R  c #1AE5BE",
"E  c #1BE4BF",
"W  c #1AE5BF",
"Q  c #19E6BE",
"!  c #19E6BF",
"~  c #1AE6BE",
"^  c #1AE6BF",
"/  c #5F80DC",
"(  c #6685DC",
")  c #7C97E2",
"_  c #829DE3",
"`  c #8EA7E6",
"'  c #8FA8E6",
"]  c #9DB3E9",
"[  c #9EB4E9",
"{  c #A1B7EA",
"}  c #B3C6ED",
"|  c #B8C9EF",
" . c #BECEEF",
".. c #C0D0F0",
"X. c #C6D6F2",
"o. c #CEDCF3",
"O. c #D2DFF4",
"+. c #D5E1F3",
"@. c #D3E0F4",
"#. c #D4E0F4",
"$. c #D4E1F4",
"%. c #D5E1F4",
"&. c #D5E0F5",
"*. c #D4E1F5",
"=. c None",
/* pixels */
"=.=.=.=.=.=.=.=.=.=.=.=.=.=.=.=.=.=.=.=.=.=.=.=.=.=.=.=.=.=.=.=.=.=.=.=.=.=.=.=.=.=.=.=.=.=.=.=.=.=.=.=.=.=.=.=.=.=.=.=.=.=.=.=.",
"=.=.=.=.=.=.=.=.=.=.=.=.=.=.=.=.=.=.=.=.=.=.=.=.=.=.=.=.=.=.=.=.=.=.=.=.=.=.=.=.=.=.=.=.=.=.=.=.=.=.=.=.=.=.=.=.=.=.=.=.=.=.=.=.",
"=.=.=.=.=.=.=.=.=.=.=.=.=.=.=.=.=.=.=.=.=.=.=.=.=.=.=.=.=.=.=.=.=.=.=.=.=.=.=.=.=.=.=.=.=.=.=.=.=.=.=.=.=.=.=.=.=.=.=.=.=.=.=.=.",
"=.=.=.=.=.=.=.=.=.=.=.=.=.=.=.=.=.=.=.=.=.=.=.=.=.=.=.=.=.=.=.=.=.=.=.=.=.=.=.=.=.=.=.=.=.=.=.=.=.=.=.=.=.=.=.=.=.=.=.=.=.=.=.=.",
"=.=.=.=.=.=.=.=.=.=.=.=.=.=.=.=.=.=.=.=.=.=.=.=.=.=.=.=.=.=.=.=.=.=.=.=.=.=.=.=.=.=.=.=.=.=.=.=.=.=.=.=.=.=.=.=.=.=.=.=.=.=.=.=.",
"=.=.=.=.=.=.=.=.=.=.=.=.=.=.=.=.=.=.=.=.=.=.=.=.=.=.=.=.=.=.=.=.=.=.=.=.=.=.=.=.=.=.=.=.=.=.=.=.=.=.=.=.=.=.=.=.=.=.=.=.=.=.=.=.",
"=.=.=.=.=.=.=.=.=.=.=.=.=.=.=.=.=.=.=.=.=.=.=.=.=.=.=.=.=.=.=.=.=.=.=.=.=.=.=.=.=.=.=.=.=.=.=.=.=.=.=.=.=.=.=.=.=.=.=.=.=.=.=.=.",
"=.=.=.=.=.=.=.=.=.=.=.=.=.=.=.=.=.R T =.=.=.=.=.=.=.=.=.=.=.=.=.=.=.=.=.=.=.=.=.=.=.=.=.=.T R =.=.=.=.=.=.=.=.=.=.=.=.=.=.=.=.=.",
"=.=.=.=.=.=.=.=.=.=.=.=.=.=.R R R R R R ~ ~ =.=.=.=.=.=.=.R R R R R R T =.=.=.=.=.=.R R R R R R R U =.=.=.=.=.=.=.=.=.=.=.=.=.=.",
"=.=.=.=.=.=.=.=.=.=.=.=.=.R R =.=.=.=.=.W R ~ =.=.=.=.P R W =.=.=.=.T R ~ =.=.=.=.R R R =.=.=.=.=.R R =.=.=.=.=.=.=.=.=.=.=.=.=.",
"=.=.=.=.=.=.=.=.=.=.=.=.R P =.=.=.=.=.=.=.=.R R =.=.R R =.=.=.=.=.=.=.=.R ~ =.=.R R =.=.=.=.=.=.=.=.R R =.=.=.=.=.=.=.=.=.=.=.=.",
"=.=.=.=.=.=.=.=.=.=.=.R R =.=.=.=.=.=.=.=.=.=.R I T R =.=.=.=.=.=.=.=.=.=.R R R R =.=.=.=.=.=.=.=.=.=.R R =.=.=.=.=.=.=.=.=.=.=.",
"=.=.=.=.=.=.=.=.=.=.R R =.=.=.=.~ W =.=.=.=.=.P R R W =.=.P R R =.=.=.=.=.=.R R ~ =.=.W Q =.=.=.=.=.=.=.~ R =.=.=.=.=.=.=.=.=.=.",
"=.=.=.=.=.=.=.=.=.=.R R =.=.=.R P R =.=.=.=.=.=.R R =.=.=.R W R =.=.=.=.=.=.R R =.=.=.R P R =.=.=.=.=.=.R R =.=.=.=.=.=.=.=.=.=.",
"=.=.=.=.=.=.=.=.=.=.R ~ =.=.=.~ R R =.=.=.=.=.=.R R =.=.=.R R R =.=.=.=.=.=.R R =.=.=.R R R =.=.=.=.=.=.R R =.=.=.=.=.=.=.=.=.=.",
"=.=.=.=.=.=.=.=.=.=.R =.=.=.=.=.^ =.=.=.=.=.=.=.R R =.=.=.=.=.=.=.=.=.=.=.=.R R =.=.=.=.I =.=.=.=.=.=.=.=.R =.=.=.=.=.=.=.=.=.=.",
"=.=.=.=.=.=.=.=.P R R R R =.=.=.=.=.=.=.=.=.W R R R R =.=.=.=.=.=.=.=.=.=.R R R P R =.=.=.=.=.=.=.=.=.L R R R Q =.=.=.=.=.=.=.=.",
"=.=.=.=.=.=.R R R P P R T R R =.=.=.=.=.Q R R I Q R R R R =.=.=.=.=.=.R R W R U ^ R R R =.=.=.=.=.Q R R R P P R R R =.=.=.=.=.=.",
"=.=.=.=.=.R R =.=.=.=.=.=.=.R R =.=.=.R ~ =.=.=.=.=.=.=.R R =.=.=.=.R ~ =.=.=.=.=.=.=.R R =.=.=.R R =.=.=.=.=.=.=.P R =.=.=.=.=.",
"=.=.=.=.R R =.=.=.=.=.=.=.=.=.R R =.~ R =.=.=.=.=.=.=.=.=.W R =.=.R ! =.=.=.=.=.=.=.=.=.R R =.R P =.=.=.=.=.=.=.=.=.P R =.=.=.=.",
"=.=.=.Y R =.=.=.=.R =.=.=.=.=.=.R R R =.=.=.=.R =.=.=.=.=.=.~ R R R =.=.=.R =.=.=.=.=.=.=.R R R =.=.=.R =.=.=.=.=.=.=.R R =.=.=.",
"=.=.=.R R =.=.=.R R R =.=.=.=.=.T R R =.=.=.R R R =.=.=.=.=.=.R R =.=.=.R R R =.=.=.=.=.=.~ R R =.=.R R R =.=.=.=.=.=.R R =.=.=.",
"=.=.=.R =.=.=.=.R R R =.=.=.=.=.=.R Q =.=.=.R R R =.=.=.=.=.=.R R =.=.=.R R R =.=.=.=.=.=.P R =.=.=.R R R =.=.=.=.=.=.=.R =.=.=.",
"=.=.=.R =.=.=.=.=.R ~ =.=.=.=.=.=.R =.=.=.=.=.R =.=.=.=.=.=.=.T R =.=.=.=.R =.=.=.=.=.=.=.=.R =.=.=.P R =.=.=.=.=.=.=.=.R =.=.=.",
"=.=.=.R =.=.=.=.=.=.=.=.=.=.=.=.=.R W =.=.=.=.=.=.=.=.=.=.=.=.~ R =.=.=.=.=.=.=.=.=.=.=.=.~ R =.=.=.=.=.=.=.=.=.=.=.=.=.R =.=.=.",
"=.=.=.R =.=.=.=.=.=.=.=.=.=.=.=.=.R P =.=.=.=.=.=.=.=.=.=.=.=.R R =.=.=.=.=.=.=.=.=.=.=.=.^ R =.=.=.=.=.=.=.=.=.=.=.=.=.R =.=.=.",
"=.=.=.R T =.=.=.=.=.=.=.=.=.=.=.R R R =.=.=.=.=.=.=.=.=.=.=.=.R R =.=.=.=.=.=.=.=.=.=.=.=.R R R =.=.=.=.=.=.=.=.=.=.=.R R =.=.=.",
"=.=.=.I R =.=.=.=.=.=.=.=.=.=.=.R R R R =.=.=.=.=.=.=.=.=.=.R R R R =.=.=.=.=.=.=.=.=.=.E R ^ R =.=.=.=.=.=.=.=.=.=.=.~ R =.=.=.",
"=.=.=.=.P R =.=.=.=.=.=.=.=.=.R R =.~ R =.=.=.=.=.=.=.=.=.Y R =.=.R R =.=.=.=.=.=.=.=.=.R T =.~ R =.=.=.=.=.=.=.=.=.T T =.=.=.=.",
"=.=.=.$ u B M : O O O O O < C M r O # n Z s O O O O O O k Z l O O j S b O O O O O O a Z m , O p A N $ O O O O O $ N V p $ =.=.=.",
"=.=.O d z h i % O O O O O O 5 < O O O $ t $ O O O O O O # e O O O O 3 1 O O O O O O $ y $ O O O 2 4 O O O O O O O 4 < O O O =.=.",
"=.O f o.$.$.=.=.=.=.=.=.=.=.=.=.=.=.=.=.=.=.=.=.=.=.=.=.=.=.=.=.=.=.=.=.=.=.=.=.=.=.=.=.=.=.=.=.=.=.=.=.=.=.=.=.=.=.=.=.=.O O =.",
"=.O c $.$.+.=.=.=.=.=.=.=.=.=.=.=.=.=.=.=.=.=.=.=.=.=.=.=.=.=.=.=.=.=.=.=.=.=.=.=.=.=.=.=.=.=.=.=.=.=.=.=.=.=.=.=.=.=.=.=.O $ =.",
"=.. c $.$.$.=.=.=.=.=.=.=.=.=.=.=.=.=.=.=.=.=.=.=.=.=.=.=.=.=.=.=.=.=.=.=.=.=.=.=.=.=.=.=.=.=.=.=.=.=.=.=.=.=.=.=.=.=.=.=.O   =.",
"=.= x $.$.$.=.=.=.=.=.=.=.=.=.=.=.=.=.=.=.=.=.=.=.=.=.=.=.=.=.=.=.=.=.=.=.=.=.=.=.=.=.=.=.=.=.=.=.=.=.=.=.=.=.=.=.=.=.=.=.O O =.",
"=.$ 8 z z g O O O O O O O O O O O O O O O O O O O O O O O O O O O O O O O O O O O O O O O O O O O O O O O O O O O O O O O O O =.",
"=.= O H J G % O O O O O O O O O O O O O O O O O O O O O O O O O O O O O O O O O O O O O O O O O O O O O O O O O O O O O $ O X =.",
"=.=.O | $.$.=.=.=.=.=.=.=.=.=.=.=.=.=.=.=.=.=.=.=.=.=.=.=.=.=.=.=.=.=.=.=.=.=.=.=.=.=.=.=.=.=.=.=.=.=.=.=.=.=.=.=.=.=.=.=.O =.=.",
"=.=.O ` $.$.=.=.=.=.=.=.=.=.=.=.=.=.=.=.=.=.=.=.=.=.=.=.=.=.=.=.=.=.=.=.=.=.=.=.=.=.=.=.=.=.=.=.=.=.=.=.=.=.=.=.=.=.=.=.=.O =.=.",
"=.=.& / $.$.&.=.=.=.=.=.=.=.=.=.=.=.=.=.=.=.=.=.=.=.=.=.=.=.=.=.=.=.=.=.=.=.=.=.=.=.=.=.=.=.=.=.=.=.=.=.=.=.=.=.=.=.=.=.  O =.=.",
"=.=.O f O.$.%.=.=.=.=.=.=.=.=.=.=.=.=.=.=.=.=.=.=.=.=.=.=.=.=.=.=.=.=.=.=.=.=.=.=.=.=.=.=.=.=.=.=.=.=.=.=.=.=.=.=.=.=.=.O X =.=.",
"=.=.=.O { $.$.=.=.=.=.=.=.=.=.=.=.=.=.=.=.=.=.=.=.=.=.=.=.=.=.=.=.=.=.=.=.=.=.=.=.=.=.=.=.=.=.=.=.=.=.=.=.=.=.=.=.=.=.=.O =.=.=.",
"=.=.=.% K $.$.#.=.=.=.=.=.=.=.=.=.=.=.=.=.=.=.=.=.=.=.=.=.=.=.=.=.=.=.=.=.=.=.=.=.=.=.=.=.=.=.=.=.=.=.=.=.=.=.=.=.=.=.= O =.=.=.",
"=.=.=.$ ; } $.$.=.=.=.=.=.=.=.=.=.=.=.=.=.=.=.=.=.=.=.=.=.=.=.=.=.=.=.=.=.=.=.=.=.=.=.=.=.=.=.=.=.=.=.=.=.=.=.=.=.=.=.O X =.=.=.",
"=.=.=.=.% v @.$.$.=.=.=.=.=.=.=.=.=.=.=.=.=.=.=.=.=.=.=.=.=.=.=.=.=.=.=.=.=.=.=.=.=.=.=.=.=.=.=.=.=.=.=.=.=.=.=.=.=.+ O =.=.=.=.",
"=.=.=.=.=.O ) $.$.=.=.=.=.=.=.=.=.=.=.=.=.=.=.=.=.=.=.=.=.=.=.=.=.=.=.=.=.=.=.=.=.=.=.=.=.=.=.=.=.=.=.=.=.=.=.=.=.=.O =.=.=.=.=.",
"=.=.=.=.=.O > ] $.$.=.=.=.=.=.=.=.=.=.=.=.=.=.=.=.=.=.=.=.=.=.=.=.=.=.=.=.=.=.=.=.=.=.=.=.=.=.=.=.=.=.=.=.=.=.=.=.O $ =.=.=.=.=.",
"=.=.=.=.=.=.$ 0 [ $.$.=.=.=.=.=.=.=.=.=.=.=.=.=.=.=.=.=.=.=.=.=.=.=.=.=.=.=.=.=.=.=.=.=.=.=.=.=.=.=.=.=.=.=.=.=.O X =.=.=.=.=.=.",
"=.=.=.=.=.=.=.= 7 _ $.*.=.=.=.=.=.=.=.=.=.=.=.=.=.=.=.=.=.=.=.=.=.=.=.=.=.=.=.=.=.=.=.=.=.=.=.=.=.=.=.=.=.=.=.O O =.=.=.=.=.=.=.",
"=.=.=.=.=.=.=.=.X O D  .$.=.=.=.=.=.=.=.=.=.=.=.=.=.=.=.=.=.=.=.=.=.=.=.=.=.=.=.=.=.=.=.=.=.=.=.=.=.=.=.=.O O O =.=.=.=.=.=.=.=.",
"=.=.=.=.=.=.=.=.=.=.% 9 ( ..$.=.=.=.=.=.=.=.=.=.=.=.=.=.=.=.=.=.=.=.=.=.=.=.=.=.=.=.=.=.=.=.=.=.=.=.=.O O O =.=.=.=.=.=.=.=.=.=.",
"=.=.=.=.=.=.=.=.=.=.=.X O 6 F ' X.=.=.=.=.=.=.=.=.=.=.=.=.=.=.=.=.=.=.=.=.=.=.=.=.=.=.=.=.=.=.=.=.= O O O =.=.=.=.=.=.=.=.=.=.=.",
"=.=.=.=.=.=.=.=.=.=.=.=.=.* . O O q w 7 - O O O O O O O O O O O O O O O O O O O O O O O O O O O O O @ =.=.=.=.=.=.=.=.=.=.=.=.=.",
"=.=.=.=.=.=.=.=.=.=.=.=.=.=.=.=.O O O O O O O O O O O O O O O O O O O O O O O O O O O O O O O O =.=.=.=.=.=.=.=.=.=.=.=.=.=.=.=.",
"=.=.=.=.=.=.=.=.=.=.=.=.=.=.=.=.$ O =.=.=.=.=.=.=.=.=.=.=.=.=.=.=.=.=.=.=.=.=.=.=.=.=.=.=.=.O X =.=.=.=.=.=.=.=.=.=.=.=.=.=.=.=.",
"=.=.=.=.=.=.=.=.=.=.=.=.=.=.=.=.=.O O O O O O O O O O O O O O O O O O O O O O O O O O O O O O =.=.=.=.=.=.=.=.=.=.=.=.=.=.=.=.=.",
"=.=.=.=.=.=.=.=.=.=.=.=.=.=.=.=.=.=.o - - - - - - - - - - - - - - - - - - - - - - - - - - - =.=.=.=.=.=.=.=.=.=.=.=.=.=.=.=.=.=.",
"=.=.=.=.=.=.=.=.=.=.=.=.=.=.=.=.=.=.=.=.=.=.=.=.=.=.=.=.=.=.=.=.=.=.=.=.=.=.=.=.=.=.=.=.=.=.=.=.=.=.=.=.=.=.=.=.=.=.=.=.=.=.=.=.",
"=.=.=.=.=.=.=.=.=.=.=.=.=.=.=.=.=.=.=.=.=.=.=.=.=.=.=.=.=.=.=.=.=.=.=.=.=.=.=.=.=.=.=.=.=.=.=.=.=.=.=.=.=.=.=.=.=.=.=.=.=.=.=.=.",
"=.=.=.=.=.=.=.=.=.=.=.=.=.=.=.=.=.=.=.=.=.=.=.=.=.=.=.=.=.=.=.=.=.=.=.=.=.=.=.=.=.=.=.=.=.=.=.=.=.=.=.=.=.=.=.=.=.=.=.=.=.=.=.=.",
"=.=.=.=.=.=.=.=.=.=.=.=.=.=.=.=.=.=.=.=.=.=.=.=.=.=.=.=.=.=.=.=.=.=.=.=.=.=.=.=.=.=.=.=.=.=.=.=.=.=.=.=.=.=.=.=.=.=.=.=.=.=.=.=.",
"=.=.=.=.=.=.=.=.=.=.=.=.=.=.=.=.=.=.=.=.=.=.=.=.=.=.=.=.=.=.=.=.=.=.=.=.=.=.=.=.=.=.=.=.=.=.=.=.=.=.=.=.=.=.=.=.=.=.=.=.=.=.=.=.",
"=.=.=.=.=.=.=.=.=.=.=.=.=.=.=.=.=.=.=.=.=.=.=.=.=.=.=.=.=.=.=.=.=.=.=.=.=.=.=.=.=.=.=.=.=.=.=.=.=.=.=.=.=.=.=.=.=.=.=.=.=.=.=.=.",
"=.=.=.=.=.=.=.=.=.=.=.=.=.=.=.=.=.=.=.=.=.=.=.=.=.=.=.=.=.=.=.=.=.=.=.=.=.=.=.=.=.=.=.=.=.=.=.=.=.=.=.=.=.=.=.=.=.=.=.=.=.=.=.=."
};
