/* XPM */
static char *_e0b02e7aaa84c8add17d6328885945fv0oV6PXmc9oH43HW[] = {
/* columns rows colors chars-per-pixel */
"64 64 94 2 ",
"   c None",
".  c #00ACE9",
"X  c #00AEE9",
"o  c #00AFE9",
"O  c #00ACEA",
"+  c #00ADEA",
"@  c #00B2E7",
"#  c #00B3E7",
"$  c #00B7E5",
"%  c #00B4E7",
"&  c #00B5E7",
"*  c #00B6E6",
"=  c #00B7E6",
"-  c #00B6E7",
";  c #00BDE3",
":  c #00BEE2",
">  c #00BFE2",
",  c #00BEE3",
"<  c #00BFE3",
"1  c #00B8E5",
"2  c #00B9E5",
"3  c #00BBE5",
"4  c #00B8E6",
"5  c #00BAE6",
"6  c #00BCE4",
"7  c #00BDE4",
"8  c #00B1E8",
"9  c #00B0E9",
"0  c #00B2E8",
"q  c #00C7DF",
"w  c #00C9DF",
"e  c #00CBDE",
"r  c #00CADF",
"t  c #00CCDD",
"y  c #00CDDD",
"u  c #00CFDD",
"i  c #00CCDE",
"p  c #00CDDE",
"a  c #00DED7",
"s  c #00DFD7",
"d  c #00D1DB",
"f  c #00D2DB",
"g  c #00D3DB",
"h  c #00D7D9",
"j  c #00D5DA",
"k  c #00D5DB",
"l  c #00D6DA",
"z  c #00D7DA",
"x  c #00D1DC",
"c  c #00D0DD",
"v  c #00D2DC",
"b  c #00D9D9",
"n  c #00DAD8",
"m  c #00DBD8",
"M  c #00DAD9",
"N  c #00D8DA",
"B  c #00D9DA",
"V  c #00DCD8",
"C  c #00DDD8",
"Z  c #00DED8",
"A  c #00DFD8",
"S  c #00E0D6",
"D  c #00E0D7",
"F  c #00E2D6",
"G  c #00E3D6",
"H  c #00E2D7",
"J  c #00E4D5",
"K  c #00E5D5",
"L  c #00E6D4",
"P  c #00E7D4",
"I  c #00E4D6",
"U  c #00E9D3",
"Y  c #00EAD2",
"T  c #00EBD2",
"R  c #00EAD3",
"E  c #00EBD3",
"W  c #00EDD1",
"Q  c #00EED0",
"!  c #00EFD0",
"~  c #00EED1",
"^  c #00EFD1",
"/  c #00ECD2",
"(  c #00EDD2",
")  c #00EED2",
"_  c #00E8D4",
"`  c #00C1E1",
"'  c #00C3E1",
"]  c #00C0E2",
"[  c #00C0E3",
"{  c #00C2E2",
"}  c #00C4E1",
"|  c #00C5E1",
" . c #00C6E0",
".. c #00C8E0",
/* pixels */
"                                                                                                                                ",
"                                                                                                                                ",
"                                                        ^ ^ ^ ^ ^ ^ ^ !                                                         ",
"                                                  ^ ^ ^ ^ ^ ^ ^ ^ ^ ^ ^ ^ ^ ^                                                   ",
"                                            / / / / ^ ^ /             ^ / / ^ / / /                                             ",
"                                          / / / /                             / / / /                                           ",
"                                      E E E /                                     _ / / U                                       ",
"                                    _ / _                                             U / U                                     ",
"                                  _ U U                                                 _ U U                                   ",
"                                P P K                                                     _ _ _                                 ",
"                                K P                                                         K _                                 ",
"                              K K                                                             K _                               ",
"                            K J K                                                             K K D                             ",
"                            J J                                                                 K J                             ",
"                          D J                                                                     D J                           ",
"                          J A                                                                     J D                           ",
"                        J A J                                                                     A A A                         ",
"                        h A                                                                         a A                         ",
"                        a a                                                                         A N                         ",
"                        a N                     A                             a                     a a                         ",
"                        A N               N A N N a N                     N N a N N N               a N                         ",
"                        N N             N N N N N N N h                 A N N h A N N N             N N                         ",
"                        N N             N N         N N N             N N N         N N             N N                         ",
"                      h N k           N N             N N             k N             N N           k N N                       ",
"                      k k N           k k             N k             k k             k k           k k k                       ",
"                      k k k           k k             k k             k k             k k           k k k                       ",
"                      k k x             k x         k f x             k x k         x k             k f k                       ",
"                      x x x             x x k x k x x x                 x x k x x k x x             f x f                       ",
"                      x x x               x x x x x x                     x x x x x x               x x x                       ",
"                      x x x                                                                         x x x                       ",
"                      y y x                                                                         y x y                       ",
"                      y ..x                                                                         x ..y                       ",
"                      y y y                                                                         y y y                       ",
"                      r r r                                                                         r r r                       ",
"                      r r r                                                                         r r r                       ",
"                      r r r                                                                         r r r                       ",
"                      q | r                                                                         q | r                       ",
"                      | q r                                                                         q r |                       ",
"                      | | |                                                                         | | |                       ",
"                      | [ |                                                                         | [ |                       ",
"                      | [ q                                                                         [ q [                       ",
"                      [ [ [                                                                         q [ [                       ",
"                      < q <                   [ [ <                         < [ [ [                 [ [ [                       ",
"                      < < <               < < < [ [ [ [                   < < [ < < <               [ [ [                       ",
"                      < < <             < < <     6 [ 6 6               6 [ <     < < <             < < <                       ",
"                      < 3 <           6 6 6           6 6             6 6             6 6           < 6 <                       ",
"                      6 6 6           6 6             6 6 6           6 6             6 6           3 6 6                       ",
"                      3 3 3           3 3               6 6         6 6                 3 3         3 3 3                       ",
"                      3 3 3         3 * 3               * 3         * 3                 3 *         3 3 *                       ",
"                      3 * *         * 3 3               3 *         3 *                 * 3         * * 3                       ",
"                      * 3 *         * 3 *               3 *         * 3                 * 3         * 3 3                       ",
"                      * * *         * * *               * *         * *                 * *         * * *                       ",
"                      & @ *         & & &               * &         * &                 & &         * & &                       ",
"                      * * 8         & 8 8               8 &         * 8                 & &         8 * 8                       ",
"                      @ 8 8         8 & 8               8 8         8 8                 & 8         @ 8 @                       ",
"                      8 8 8         8 8 8               8 &         8 8                 8 8         8 8 8                       ",
"                      8 O 8         8 8 8               8 8         8 8                 8 8         8 8 8                       ",
"                        8 O         O 8                 9 O         8 O                 8 O         O 8                         ",
"                        8 O         O O                 + O         O 8                 O O         O O                         ",
"                        O O O     O O +                 + + +     O O O                 O O O     O O O                         ",
"                          O O O O O O                     + O O O O +                     O O O O O O                           ",
"                            O O + +                           + O +                         O O O O                             ",
"                                                                                                                                ",
"                                                                                                                                "
};
