/* XPM */
static char *_2323_5bbf8377a77b994b21f000a0ff9c824c394562738f50985a1f4227ef0cb8910f[] = {
/* columns rows colors chars-per-pixel */
"64 64 227 2 ",
"   c #0C0C0C0C0C0C",
".  c gray5",
"X  c #0E0E0E0E0E0E",
"o  c gray6",
"O  c #101010101010",
"+  c #111111111111",
"@  c gray7",
"#  c #131313131313",
"$  c gray8",
"%  c #151515151515",
"&  c #161616161616",
"*  c gray9",
"=  c #181818181818",
"-  c #191919191919",
";  c gray10",
":  c #1B1B1B1B1B1B",
">  c gray11",
",  c #1D1D1D1D1D1D",
"<  c #1E1E1E1E1E1E",
"1  c gray12",
"2  c gray13",
"3  c #222222222222",
"4  c #232323232323",
"5  c gray14",
"6  c #252525252525",
"7  c gray15",
"8  c #272727272727",
"9  c #282828282828",
"0  c gray16",
"q  c #2A2A2A2A2A2A",
"w  c gray17",
"e  c #2C2C2C2C2C2C",
"r  c #2D2D2D2D2D2D",
"t  c gray18",
"y  c #2F2F2F2F2F2F",
"u  c gray19",
"i  c #313131313131",
"p  c #323232323232",
"a  c gray20",
"s  c #343434343434",
"d  c #353535353535",
"f  c gray21",
"g  c #373737373737",
"h  c gray22",
"j  c #393939393939",
"k  c #3A3A3A3A3A3A",
"l  c #3C3C3C3C3C3C",
"z  c #3E3E3E3E3E3E",
"x  c #3F3F3F3F3F3F",
"c  c gray25",
"v  c #414141414141",
"b  c gray26",
"n  c #434343434343",
"m  c #444444444444",
"M  c gray27",
"N  c #464646464646",
"B  c #484848484848",
"V  c #494949494949",
"C  c gray29",
"Z  c #4B4B4B4B4B4B",
"A  c #4C4C4C4C4C4C",
"S  c gray30",
"D  c #4E4E4E4E4E4E",
"F  c gray31",
"G  c #505050505050",
"H  c #515151515151",
"J  c gray32",
"K  c #535353535353",
"L  c gray33",
"P  c #555555555555",
"I  c #565656565656",
"U  c gray34",
"Y  c #585858585858",
"T  c gray35",
"R  c #5A5A5A5A5A5A",
"E  c #5B5B5B5B5B5B",
"W  c gray36",
"Q  c #5D5D5D5D5D5D",
"!  c gray37",
"~  c #5F5F5F5F5F5F",
"^  c gray38",
"/  c #626262626262",
"(  c gray39",
")  c #656565656565",
"_  c gray40",
"`  c #676767676767",
"'  c #686868686868",
"]  c DimGray",
"[  c #6A6A6A6A6A6A",
"{  c gray42",
"}  c #6C6C6C6C6C6C",
"|  c #6D6D6D6D6D6D",
" . c gray43",
".. c #6F6F6F6F6F6F",
"X. c gray44",
"o. c #717171717171",
"O. c #727272727272",
"+. c gray45",
"@. c #747474747474",
"#. c gray46",
"$. c #777777777777",
"%. c gray47",
"&. c #797979797979",
"*. c #7C7C7C7C7C7C",
"=. c gray49",
"-. c #7E7E7E7E7E7E",
";. c gray50",
":. c #808080808080",
">. c #818181818181",
",. c gray51",
"<. c #838383838383",
"1. c #848484848484",
"2. c gray52",
"3. c #868686868686",
"4. c gray53",
"5. c #888888888888",
"6. c #898989898989",
"7. c gray54",
"8. c #8B8B8B8B8B8B",
"9. c gray55",
"0. c #8D8D8D8D8D8D",
"q. c #8E8E8E8E8E8E",
"w. c gray56",
"e. c #909090909090",
"r. c gray57",
"t. c #929292929292",
"y. c #939393939393",
"u. c #959595959595",
"i. c gray59",
"p. c #989898989898",
"a. c gray60",
"s. c #9A9A9A9A9A9A",
"d. c #9B9B9B9B9B9B",
"f. c gray61",
"g. c #9D9D9D9D9D9D",
"h. c gray62",
"j. c #9F9F9F9F9F9F",
"k. c #A0A0A0A0A0A0",
"l. c gray63",
"z. c #A2A2A2A2A2A2",
"x. c #A4A4A4A4A4A4",
"c. c #A5A5A5A5A5A5",
"v. c #A7A7A7A7A7A7",
"b. c gray66",
"n. c #A9A9A9A9A9A9",
"m. c #AAAAAAAAAAAA",
"M. c gray67",
"N. c #ACACACACACAC",
"B. c gray68",
"V. c #AEAEAEAEAEAE",
"C. c #AFAFAFAFAFAF",
"Z. c gray69",
"A. c #B1B1B1B1B1B1",
"S. c #B2B2B2B2B2B2",
"D. c gray70",
"F. c #B4B4B4B4B4B4",
"G. c gray71",
"H. c #B6B6B6B6B6B6",
"J. c #B7B7B7B7B7B7",
"K. c gray72",
"L. c #B9B9B9B9B9B9",
"P. c gray73",
"I. c #BBBBBBBBBBBB",
"U. c #BCBCBCBCBCBC",
"Y. c gray74",
"T. c gray",
"R. c gray75",
"E. c #C0C0C0C0C0C0",
"W. c gray76",
"Q. c #C3C3C3C3C3C3",
"!. c gray77",
"~. c #C5C5C5C5C5C5",
"^. c #C6C6C6C6C6C6",
"/. c gray78",
"(. c #C8C8C8C8C8C8",
"). c gray79",
"_. c #CACACACACACA",
"`. c #CBCBCBCBCBCB",
"'. c gray80",
"]. c #CDCDCDCDCDCD",
"[. c #CECECECECECE",
"{. c gray81",
"}. c gray82",
"|. c #D2D2D2D2D2D2",
" X c LightGray",
".X c #D5D5D5D5D5D5",
"XX c gray84",
"oX c #D7D7D7D7D7D7",
"OX c #D8D8D8D8D8D8",
"+X c gray85",
"@X c #DADADADADADA",
"#X c gray86",
"$X c gainsboro",
"%X c #DDDDDDDDDDDD",
"&X c gray87",
"*X c #DFDFDFDFDFDF",
"=X c gray88",
"-X c #E1E1E1E1E1E1",
";X c #E2E2E2E2E2E2",
":X c gray89",
">X c #E4E4E4E4E4E4",
",X c gray90",
"<X c #E7E7E7E7E7E7",
"1X c gray91",
"2X c #E9E9E9E9E9E9",
"3X c #EAEAEAEAEAEA",
"4X c gray92",
"5X c #ECECECECECEC",
"6X c gray93",
"7X c #EEEEEEEEEEEE",
"8X c #EFEFEFEFEFEF",
"9X c gray94",
"0X c #F1F1F1F1F1F1",
"qX c gray95",
"wX c #F3F3F3F3F3F3",
"eX c #F4F4F4F4F4F4",
"rX c gray96",
"tX c #F6F6F6F6F6F6",
"yX c gray97",
"uX c #F8F8F8F8F8F8",
"iX c #F9F9F9F9F9F9",
"pX c gray98",
"aX c #FBFBFBFBFBFB",
"sX c gray99",
"dX c #FDFDFDFDFDFD",
"fX c #FEFEFEFEFEFE",
"gX c white",
/* pixels */
"pXpXpXpXpXpXpXpXpXpXpXpXpXpXpXpXpXpXpXpXpXpXpXpXpXpXpXpXpXpXpXpXpXpXpXpXpXpXpXpXpXpXpXpXpXpXpXpXpXpXpXpXpXpXpXpXpXpXpXpXpXpXpXpX",
"pXpXpXpXpXpXpXpXpXpXpXpXpXpXpXpXpXpXpXpXpXpXpXpXpXpXpXpXpXpXpXpXpXpXpXpXpXpXpXpXpXpXpXpXpXpXpXpXpXpXpXpXpXpXpXpXpXpXpXpXpXpXpXpX",
"pXpXpXpXpXpXpXpXpXpXpXpXpXpXpXpXpXpXpXpXpXpXpXpXpXpXpXpXpXpXpXpXpXpXpXpXpXpXpXpXpXpXpXpXpXpXpXpXpXpXpXpXpXpXpXpXpXpXpXpXpXpXpXpX",
"pXpXpXpXpXpXpXpXpXpXpXpXpXpXpXpXpXpXpXpXpXpXpXpXpXpXpXpXpXpXpXpXpXpXpXpXpXpXpXpXpXpXpXpXpXpXpXpXpXpXpXpXpXpXpXpXpXpXpXpXpXpXpXpX",
"pXpXpXpXpXpXpXpXpXpXpXpXpXpXpXpXpXpXpXpXpXpXpXpXpXpXpXpXpXpXpXpXpXpXpXpXpXpXpXpXpXpXpXpXpXpXpXpXpXpXpXpXpXpXpXpXpXpXpXpXpXpXpXpX",
"pXpXpXpXpXpXpXpXpXpXpXpXpXpXpXpXpXpXpXpXpXpXpXpXpXpXpXpXpXpXsXaXsXpXpXpXpXpXpXpXpXpXpXpXpXpXpXpXpXpXpXpXpXpXpXpXpXpXpXpXpXpXpXpX",
"pXpXpXpXpXpXpXpXpXpXpXpXpXpXpXpXpXpXpXpXpXpXpXpXpXpXpXpXaX8Xy.o.e.7XaXpXpXpXpXpXpXpXpXpXpXpXpXpXpXpXpXpXpXpXpXpXpXpXpXpXpXpXpXpX",
"pXpXpXpXpXpXpXpXpXpXpXpXpXpXpXpXpXpXpXpXpXpXpXpXpXpXpXaXqX=.: o ; #.4XaXpXpXpXpXpXpXpXpXpXpXpXpXpXpXpXpXpXpXpXpXpXpXpXpXpXpXpXpX",
"pXpXpXpXpXpXpXpXpXpXpXpXpXpXpXpXpXpXpXpXpXpXpXpXpXpXpXaX*Xg + $ # = +.0XaXpXpXpXpXpXpXpXpXpXpXpXpXpXpXpXpXpXpXpXpXpXpXpXpXpXpXpX",
"pXpXpXpXpXpXpXpXpXpXpXpXpXpXpXpXpXpXpXpXpXpXpXpXpXpXaXqX| - $ $ $ + l 2XaXpXpXpXaXsXsXsXsXsXsXsXsXaXpXpXpXpXpXpXpXpXpXpXpXpXpXpX",
"pXpXpXpXpXpXpXpXpXpXpXpXpXpXpXpXpXpXpXpXpXpXpXpXpXpXaX5Xc + $ $ $ @ d  XpXpXpXaX9X#X@X@X@X@X@X@X@X4XpXpXpXpXpXpXpXpXpXpXpXpXpXpX",
"pXpXpXpXpXpXpXpXpXpXpXpXpXpXpXpXpXpXpXpXpXpXpXpXpXpXpX{.f @ $ $ $ $ % R 0XaXpXdXI.i r r r r r r w f.dXpXpXpXpXpXpXpXpXpXpXpXpXpX",
"pXpXpXpXpXpXpXpXpXpXpXpXpXpXpXpXpXpXpXpXpXpXpXpXpXaX0XT # $ $ $ + $ @ p ^.pXpXfXD.% @ @ @ @ @ @ O e.fXpXpXpXpXpXpXpXpXpXpXpXpXpX",
"pXpXpXpXpXpXpXpXpXpXpXpXpXpXpXpXpXpXpXpXpXpXpXpXpXaX9XN + $ # ; N : # @ L 9XaXsX.XS $ $ $ $ $ $ O q.fXpXpXpXpXpXpXpXpXpXpXpXpXpX",
"pXpXpXpXpXpXpXpXpXpXpXpXpXpXpXpXpXpXpXpXpXpXpXpXpXiXG.y @ # : $.).e @ + N 8XaXpXfXN.* $ $ $ $ # c I.sXpXpXpXpXpXpXpXpXpXpXpXpXpX",
"pXpXpXpXpXpXpXpXpXpXpXpXpXpXpXpXpXpXpXpXpXpXpXpXaX0XG + $ @ r $X0X;.: @ w n.uXpXfXV.* $ $ $ $ + 7.dXpXpXpXpXpXpXpXpXpXpXpXpXpXpX",
"pXpXpXpXpXpXpXpXpXpXpXpXpXpXpXpXpXpXpXpXpXpXpXpXaX9XC + # , 9.0XdXoX0 # O A 9XaXfXV.* $ $ $ $ + 7.dXpXpXpXpXpXpXpXpXpXpXpXpXpXpX",
"pXpXpXpXpXpXpXpXpXpXpXpXpXpXpXpXpXpXpXpXpXpXpXpXrXt.6 # # u #XdXsX@Xi # # 6 i.uXfXV.* $ $ $ $ + 7.dXpXpXpXpXpXpXpXpXpXpXpXpXpXpX",
"pXpXpXpXpXpXpXpXpXpXpXpXpXpXpXpXpXpXpXpXpXpXpXuXe.2 @ # < j.eXpXpXrXj.< # O Z 6XgXV.* $ $ $ $ + 7.dXpXpXpXpXpXpXpXpXpXpXpXpXpXpX",
"pXpXpXpXpXpXpXpXpXpXpXpXpXpXpXpXpXpXpXpXpXpXaX4XS O $ @ f #XdXpXpXdX#Xf # # 1 =.qXV.* $ $ $ $ + 7.dXpXpXpXpXpXpXpXpXpXpXpXpXpXpX",
"pXpXpXpXpXpXpXpXpXpXpXpXpXpXpXpXpXpXpXpXpXpXiX>.> # $ s K.yXpXpXpXpXuXV.< # # ; 2.B.* $ $ $ $ + 7.dXpXpXpXpXpXpXpXpXpXpXpXpXpXpX",
"pXpXpXpXpXpXpXpXpXpXpXpXpXpXpXpXpXpXpXpXpXsX:XA O # > S.aXaXpXpXpXpXsX$Xv @ $ O F r.* $ $ $ $ + 7.dXpXpXpXpXpXpXpXpXpXpXpXpXpXpX",
"pXpXpXpXpXpXpXpXpXpXpXpXpXpXpXpXpXpXpXpXsX*X^ * $ % C *XgXfXfXfXfXfXfXdX].N % $ ; 3 $ $ $ $ $ + 7.dXpXpXpXpXpXpXpXpXpXpXpXpXpXpX",
"pXpXpXpXpXpXpXpXpXpXpXpXpXpXpXpXpXpXpXdX+XR $ # # = 6.U.U.I.I.I.I.I.I.U.Y.7.; $ $ # $ $ $ $ $ + 7.dXpXpXpXpXpXpXpXpXpXpXpXpXpXpX",
"pXpXpXpXpXpXpXpXpXpXpXpXpXpXpXpXpXpXdX XK # $ $ $ B t * * ; : = = : : ; = ; # + $ $ $ $ $ $ $ + 7.dXpXpXpXpXpXpXpXpXpXpXpXpXpXpX",
"pXpXpXpXpXpXpXpXpXpXpXpXpXpXpXpXpXdX'.A @ $ $ $ ~ }.H W } 4 , ` _ , @ 8 Y = t K % $ $ $ $ $ $ + 7.dXpXpXpXpXpXpXpXpXpXpXpXpXpXpX",
"pXpXpXpXpXpXpXpXpXpXpXpXpXpXpXpXdX^.N @ $ $ % ` -X0XY W.z.5 e }.0.< O m L.< H OX' % $ $ $ $ $ + 7.dXpXpXpXpXpXpXpXpXpXpXpXpXpXpX",
"pXpXpXpXpXpXpXpXpXpXpXpXpXpXpXsXR.c + $ $ & X.>XdX8XY J.N O < E 1 # + m L.< F eX,X| % $ $ $ $ + 7.dXpXpXpXpXpXpXpXpXpXpXpXpXpXpX",
"pXpXpXpXpXpXpXpXpXpXpXpXpXaXaXK.j + $ $ $ +.1XsXaX8XT H.V & r =.q - * V L.< F qXgXH.: # $ $ $ + 5.sXaXpXpXpXpXpXpXpXpXpXpXpXpXpX",
"pXpXpXpXpXpXpXpXpXpXpXpXuXqXZ.s + $ # @ , F.gXpXpX<XP E.T.m.Y.6XE.C.m.T.Q.< F qXaX5X3.> # $ $ # g Z.qXiXaXpXpXpXpXpXpXpXpXpXpXpX",
"pXpXpXpXpXpXpXpXpXaXsXiXV.A r @ $ # > q q.8XaXpXeX@.e U.O.V ~ ;X&X_ C O.Y.< F qXpXsX9Xq.1 # $ $ @ r S B.4XyXaXpXpXpXpXpXpXpXpXpX",
"pXpXpXpXpXpXpXpXpX0X=Xx.w O @ $ @ 2 w.oX0XaXpXaXqXS < L.c   w ^.K # X b L.< F qXaXpXsXwXi.4 @ $ $ @ + 9 v n.wXpXpXpXpXpXpXpXpXpX",
"pXpXpXpXpXpXpXpXdXJ.a 4 @ $ $ # 9 a.rXdXaXpXpXaXqXF < W.| * t ).U & + M I.1 F qXaXpXpXaXtXg.8 @ $ $ $ # + 7 K.dXpXpXpXpXpXpXpXpX",
"pXpXpXpXpXpXpXpXfXB.# # $ $ $ @ >.uXaXpXpXpXpXaXqXS ; j.N.e 6 B.j.4 + j y.; S qXaXpXpXpXaXuXc.e @ $ $ $ $ & B.fXpXpXpXpXpXpXpXpX",
"pXpXpXpXpXpXpXpXsX{.n O O @ $ + 8.dXpXpXpXpXpXpXrX-.< = : @ + ; ; + O @ * < -.rXpXpXpXpXpXaXiXN.a # @ O O # B.fXpXpXpXpXpXpXpXpX",
"pXpXpXpXpXpXpXpXpXaX`...] n # + 7.dXpXpXpXpXpXpXpX8X6.) ` ' ' ` ` ' ' ' ) 6.8XpXpXpXpXpXpXpXpXdX,.O n ] ' [ _.sXpXpXpXpXpXpXpXpX",
"pXpXpXpXpXpXpXpXpXpXaXpXsXi.# + 7.dXpXsXdXdXdXdXdXdXsXsXsXsXaXiXiXiXiXiXpXsXdXdXdXsXpXpXpXpXaX_.F + i.dXiXiXpXpXpXpXpXpXpXpXpXpX",
"pXpXpXpXpXpXpXpXpXpXpXpXfXi.# + 7.dXpXF.,.1.1.1.1.1.1.1.1.<.r.3XaXpXpXsX-X8.1.1.,.M.iXpXpXpXdX6.O # i.fXpXpXpXpXpXpXpXpXpXpXpXpX",
"pXpXpXpXpXpXpXpXpXpXpXpXfXi.# + 7.dXaXX.X # @ + # # + # $ + q @XsXsX:X;.E % O + o t v.uXpXpXdX7.+ # i.fXpXpXpXpXpXpXpXpXpXpXpXpX",
"pXpXpXpXpXpXpXpXpXpXpXpXfXi.@ + 7.dXaXO. .b.v % &.g.k ;.b.d.n |.aXsX`.3 O % : - $ + q d.pXpXdX7.+ # i.fXpXpXpXpXpXpXpXpXpXpXpXpX",
"pXpXpXpXpXpXpXpXpXpXpXpXdXf.- + 7.dXaXO.l.k.7 $ b E 9 m _ _.x R 1X;XP * + l K.q.- $ o ] pXpXdX7.+ # i.fXrXuXsXpXpXpXpXpXpXpXpXpX",
"pXpXpXpXpXpXpXpXpXpXpXpXaX2X@.o 7.dXaXO.g.' . @ & 8.z   4 I.j e *XoX8 @ + N ;XN.; $ O } pXpXdX7.+ # p.eX7.B.<XwXpXpXpXpXpXpXpXpX",
"pXpXpXpXpXpXpXpXpXpXpXaXwX=X>.o 7.dXaXO.g.:.a f l E.] a B W.j t =XOX0 # # , g t % $ O } pXpXdX7.+ # 2.>.> 8 l T.dXpXpXpXpXpXpXpX",
"pXpXpXpXpXpXpXpXpXpXaX0Xt.y 2 + 7.dXaXO.h.|.F.I.%XqX^.F.U.OXg t =XOX0 # $ # @ @ $ $ O } pXpXdX7.+ $ 3 > # @ & D.fXpXpXpXpXpXpXpX",
"pXpXpXpXpXpXpXpXpXpXdXA.1 @ # + 7.dXaXO.g.#.3 t h.2XT 2 h R.j t =XOX0 # $ $ $ $ $ $ O } pXpXdX7.+ $ # # $ $ - H.gXpXpXpXpXpXpXpX",
"pXpXpXpXpXpXpXpXpXpXgXx.$ $ $ + 7.dXaXO.g.] X @ 4 I.S X 7 Y.j t =XOX0 # $ $ $ $ $ $ O } pXpXgX9.+ $ $ $ $ $ * 3.8XsXpXpXpXpXpXpX",
"pXpXpXpXpXpXpXpXpXaX:X{ $ $ $ + 7.dXaXO.l.Z.y $ ! oXS % o.oXh e *XOX0 @ @ $ $ $ $ $ O } pXaX XE @ $ $ $ $ $ $ : >.5XsXpXpXpXpXpX",
"pXpXpXpXpXpXpXpXpXgXN.* $ $ $ + 8.fXaXO.Q w.k % [ 9.i - #.2.i *.7XoX9 8 W ; $ $ $ $ O } pXfXe.@ $ $ $ $ $ $ $ # = %.2XsXpXpXpXpX",
"pXpXpXpXpXpXpXpXsX#XE $ $ $ $ # A [.dXO.o @ # $ # @ $ $ @ O e #XgXXX8 b K.2 # $ $ $ O } pXfXe.@ $ $ $ $ $ $ $ $ # & X.<XaXpXpXpX",
"pXpXpXpXpXpXpXpXpX=X{ $ $ $ $ $ + y.fX~.j.l.l.l.k.l.l.l.l.k.m.7XdXXX9 5 G - $ $ $ $ O } pXfXt.$ $ $ $ $ $ $ $ $ $ - <.6XaXpXpXpX",
"pXpXpXpXpXpXpXdX_./ n $ $ $ $ $ @ 8.rXaXfXfXuX0Xs.}.iXfXaXfXfXaXsXXX0 @ + $ $ $ $ $ O } pXsXOXW @ $ $ $ $ $ $ $ # 1 ^.fXpXpXpXpX",
"pXpXpXpXpXpXpXfXS.$ + $ $ $ $ $ # a J S.pXpX4.B 3 k ! W.2.{.9XpXsXXX0 # $ $ $ $ $ $ O } pXrXm.p # $ $ $ $ $ $ $ # , H.pXpXpXpXpX",
"pXpXpXpXpXpXpXdX!.r $ $ $ $ $ $ $ @ O r n.-XI . # @ # u , s Y  XdXXX0 # $ $ $ $ $ $ O } dXm.8 @ $ $ $ $ $ $ $ $ $ % z |.sXpXpXpX",
"pXpXpXpXpXpXpXaX0X,.% $ $ $ $ $ $ $ $ @ 6 s 1 # $ $ $ @ # @ # M {..Xq # $ $ $ $ $ $ O } dXu.+ $ $ $ $ $ $ $ $ $ $ # 1 (.dXpXpXpX",
"pXpXpXpXpXpXaXwXk.9 $ $ $ $ $ $ $ $ $ $ # @ # $ $ $ $ $ $ $ $ @ D !.w # $ $ $ $ $ $ O } dXi.@ $ $ $ $ $ $ $ $ $ $ # < /.dXpXpXpX",
"pXpXpXpXpXpXdX!.7 # $ $ $ $ $ $ $ $ $ $ $ $ $ $ $ $ $ $ $ $ $ @ f E.w # $ $ $ $ $ $ O | gXa.@ $ $ $ $ $ $ $ $ $ $ & Z oXsXpXpXpX",
"pXpXpXpXpXpXfXP.= # $ $ $ $ $ $ $ $ $ $ $ $ $ $ $ $ $ $ $ $ $ # 0 >.4 # $ $ $ $ $ $ + D V.[ # $ $ $ $ $ $ $ $ $ # > T.sXpXpXpXpX",
"pXpXpXpXpXpXsX&XW @ + + + + + + + + + + + + + + + + + + + + + + + @ + + + + + + + + + @ # @ + + + + + + + + + + # ( :XsXpXpXpXpX",
"pXpXpXpXpXpXpXsXXX3.1.1.1.1.1.1.1.1.1.1.1.1.1.1.1.1.1.1.1.1.1.1.1.1.1.1.1.1.1.1.1.1.1.1.1.1.1.1.1.1.1.1.1.1.1.1.5.$XsXpXpXpXpXpX",
"pXpXpXpXpXpXpXpXaXdXdXdXdXdXdXdXdXdXdXdXdXdXdXdXdXdXdXdXdXdXdXdXdXdXdXdXdXdXdXdXdXdXdXdXdXdXdXdXdXdXdXdXdXdXdXdXdXaXpXpXpXpXpXpX",
"pXpXpXpXpXpXpXpXpXpXpXpXpXpXpXpXpXpXpXpXpXpXpXpXpXpXpXpXpXpXpXpXpXpXpXpXpXpXpXpXpXpXpXpXpXpXpXpXpXpXpXpXpXpXpXpXpXpXpXpXpXpXpXpX",
"pXpXpXpXpXpXpXpXpXpXpXpXpXpXpXpXpXpXpXpXpXpXpXpXpXpXpXpXpXpXpXpXpXpXpXpXpXpXpXpXpXpXpXpXpXpXpXpXpXpXpXpXpXpXpXpXpXpXpXpXpXpXpXpX",
"pXpXpXpXpXpXpXpXpXpXpXpXpXpXpXpXpXpXpXpXpXpXpXpXpXpXpXpXpXpXpXpXpXpXpXpXpXpXpXpXpXpXpXpXpXpXpXpXpXpXpXpXpXpXpXpXpXpXpXpXpXpXpXpX",
"pXpXpXpXpXpXpXpXpXpXpXpXpXpXpXpXpXpXpXpXpXpXpXpXpXpXpXpXpXpXpXpXpXpXpXpXpXpXpXpXpXpXpXpXpXpXpXpXpXpXpXpXpXpXpXpXpXpXpXpXpXpXpXpX"
};
