/* XPM */
static char *_2c660fe8bfe41929fe7e0dc1912eb638HDFU8VGEF9rr6V1[] = {
/* columns rows colors chars-per-pixel */
"64 64 104 2 ",
"   c #5C7F93",
".  c #4E8798",
"X  c #5A8797",
"o  c #598E9C",
"O  c #57919D",
"+  c #5E93A1",
"@  c #6A94A5",
"#  c #649DA5",
"$  c #6D96AA",
"%  c #6D9FAB",
"&  c #729DAE",
"*  c #64A4AB",
"=  c #6CA6AD",
"-  c #66AAAE",
";  c #6CA9AF",
":  c #73A5AE",
">  c #78A1AF",
",  c #67AEB1",
"<  c #6CACB2",
"1  c #73ADB3",
"2  c #7CADB5",
"3  c #76AFB8",
"4  c #7CAEB9",
"5  c #6DB2B4",
"6  c #73B3B6",
"7  c #7CB2B7",
"8  c #70B8B7",
"9  c #75B5B9",
"0  c #7CB5BB",
"q  c #75BABB",
"w  c #7BBCBD",
"e  c #7CC1BF",
"r  c #7CBEC1",
"t  c #7EC2C2",
"y  c #84B4BB",
"u  c #82BCBE",
"i  c #82C1BF",
"p  c #8FB6C1",
"a  c #84BDC1",
"s  c #8BBDC4",
"d  c #90BCC6",
"f  c #96BFCD",
"g  c #84C4C4",
"h  c #8BC4C5",
"j  c #85C8C6",
"k  c #8BC9C6",
"l  c #8CC6C9",
"z  c #87CAC9",
"x  c #8DCACA",
"c  c #92C4C7",
"v  c #92C9C7",
"b  c #93C5CA",
"n  c #9BC5CD",
"m  c #93CCCC",
"M  c #9ACDCE",
"N  c #95D0CE",
"B  c #9AD1CE",
"V  c #9BC5D2",
"C  c #96CED0",
"Z  c #9CCCD2",
"A  c #96D1D1",
"S  c #9CD3D4",
"D  c #9DD8D6",
"F  c #9FD7D8",
"G  c #9ED9D8",
"H  c #A0CCCF",
"J  c #A3CDD3",
"K  c #A4CFDB",
"L  c #A3D4D5",
"P  c #A8D5D7",
"I  c #A5D8D6",
"U  c #A9D9D7",
"Y  c #A4D4D9",
"T  c #AAD5DB",
"R  c #A5DADB",
"E  c #ABDCDC",
"W  c #B2DDDD",
"Q  c #AEE0DC",
"!  c #B4E1DE",
"~  c #A9D6E0",
"^  c #ADDCE1",
"/  c #B2DEE3",
"(  c #B3DFE9",
")  c #AEE1E2",
"_  c #B4E2E4",
"`  c #BBE5E5",
"'  c #BDE8E6",
"]  c #B6E3E9",
"[  c #BAE6EB",
"{  c #BDE9EC",
"}  c #BBE7F0",
"|  c #BEEAF1",
" . c #C0E8E7",
".. c #C0E7E9",
"X. c #C2EBEC",
"o. c #C9F0EF",
"O. c #C3EDF2",
"+. c #C8EFF3",
"@. c #C5F1F5",
"#. c #C9F2F5",
"$. c #C6F3F9",
"%. c #CAF5FB",
"&. c #CEF9FE",
"*. c #D0FCFF",
/* pixels */
"%.$.*.&.@.&.&.*.*.*.*.*.*.*.*.*.*.&.*.*.*.*.*.&.&.&.&.&.&.&.&.%.$.$.%.%.%.$.%.%.$.$.$.+.@.O.| | O.@.] { [ ^ _ E _ ^ ) E R R G A ",
"%.%.[ *.&.*.*.*.*.&.*.*.&.*.&.*.&.*.&.&.*.&.*.&.*.&.&.&.&.&.&.&.$.&.&.%.%.| $.%.%.$.$.$.@.$.] [ @.X.{ X.{ { [ [ _ ^ ) ) ^ G S S ",
"&.*.%.&.&.&.&.*.*.*.*.*.*.*.*.*.*.*.*.*.*.*.*.*.&.&.*.&.&.%.$.&.&.%.$.%.%.$.$.%.%.O.O.$.$.( ^ _ ] o.@.{ O./ [ { [ ) ) ) F F G G ",
"*.&.&.%.&.&.&.*.&.*.$.&.&.%.*.*.*.&.*.*.*.*.*.&.*.*.&.*.&.&.%.$.@.&.&.%.$.@.%.%.$.%.$.$.$.O.+.^ ] | | | X./ { { ) ) _ _ Z Z F F ",
"| %.*.&.*.%.&.*.&.&.&.&.&.$.*.&.&.%.&.@.*.*.*.&.&.%.%.~ &.&.| $.%.&.%.%.%.%.%.%.%.%.+.O.#.@.@.^ | @.@.[ _ { E { ^ _ _ _ ) ^ G G ",
"&.&.&.*.&.*.*.&.&.*.*.&.&.*.*.&.%.$.*.%.*.&.*.*.%.$.*.%.&.&.&.$.&.&.%.%.%.%.$.%.%.%.%.+.#.#.O.+.@.Q O.{ X.{ ` { ' ] ] E ~ ^ Y G ",
"&.&.*.&.&.&.*.&.&.&.&.*.&.*.&.&.*.&.@.*.&.*.%.$.*.&.{ &.&.&.@.&.&.&.%.%.%.$.$.&.%.%.%.#.#.@.+.#._ [ @.X.X.T O.X.] ` [ Z S ) R Y ",
"&.&.$.&.*.*.&.&.*.*.&.&.*.*.%.&.%.&.&.*.*.*.| | *.#.] &.&.| %.&.&.&.%.%.&.[ $.&.%.$.#.%.#.#.O.O.{ @.{ { X.` { ` _ ] _ T _ ) E G ",
"&.&.&.*.%.*.L o.#.&.&.@.&.&.*.&.*.*.%.&.*.&.*.*.&.%.&.&.&.&.&.&.%.%.%.%.%.$.&.%.%.+.+.%.O.%./ T O.O.X.X.X...X.} ` { ] L J ^ E A ",
"&.&.&.*.%.%.%.&.o.&.&.@.&.&.&.&.&.&.] &.*.&.&.&.&.*.$.%.&.&.%.&.&.@.%.%.%.+.&.%.+.%.%.+.| #.#.+.+.+.+.X.X.( X.X.` { ` T E ^ Z L ",
"&.@.@.*.%.@.%.&.&.&.*.&.&.&.&.&.*.&.*.&.&.&.&.&.&.} $.$.%.&.&.%.%.$.%.%.%.%.%.&.+.$.&.+.#.#.O.+.+.O.+.+...( X.X.{ ` / E E ] R R ",
"&.&.&.*.| %.*.&.&.&.*.{ &.&.%.*.@.&.*.&.&.*.*.O.%.( } *.%.%.&.$.$.} &.%.%.+.%.%.%.O.@.+.#.O.O.+.+.+.( O...+.X.+.X.` X.[ _ _ ^ E ",
"&.@.&.$.&.*.&.*.*.&.&.&.&.%.&.&.| &.*.*.$.%.*.| $.*.&.%.%.&.%.&.@.@.} &.%.%.%.O.&.@.O.%.+.+.+.O.X.#.P ] +.X.+.....+.` ` { _ / E ",
"%.&.&.*.&.*.*.&.&.*.%.%.&.&.&.&.Z %.&.&.&.&.%.] %.%.&.&.&.&.%.&.$.@.%.$.$.%.%.%.%.$.+.O.+.%.+.+.O.O.O.+.X.X.X.( O...X.` P [ W Y ",
"&.&.*.&.&.&.&.&.&.&.%.*.&.&.&.*.| %.&.&.&.&.$.O.%.&.&.&.&.%.&.$.$.$.&.$.$.%.%.%.+.%.#.O.%./ +.( / +.+.+.O.O.O.+...+.X.` E ` _ / ",
"&.*.&.*.&.&.&.*.&.&.%.*.&.&.*.{ &.&.*.@.} &.$.*.%.&.$.| &.&.| | $.$.%.$.&.O.O.%.%.+.O.O.+.+.{ ] { +.../ O.O.....] ` X.o.X.{ _ E ",
"@.%.&.*.&.&.&.&.&.&.&.&.&.&.&.%.&.O.%.$.&.$.O.&.&.&.%.%.&.%.&.%.%.&.%.$.&.] | $.[ O.O.( [ { ^ +.+.+.+.{ +.X.X.} X...` / ....W / ",
"| $.*.&.&.&.&.*.&.&.%.%.$.&.&.&.&.&.%.&.&.%.%.&.%.$.V %.@.$.| &.%.| %.%.%.O.O.#.O.#.O.{ +.] #.+.+.O.+.O.( J X...W +.` ..o.` / W ",
"&.{ $.&.&.&.&.&.%.&.&.*.&.&.&.%.&.&.$.%.O.| $.&.%.&.$.$.| %.%.%.$.@.%.$.%.$.O.} %.+.O.{ ] O.+.+.O...+...X.( ..` K o..... . ...T ",
"%.$.&.&.&.%.&.&.%.&.&.&.&.&.&.&.&.O.&.%.$.%.%.&.$.@.%.$.%.%.$.| %.$.@.%.O.$.[ #.#.#.] { #.O.#.+.O.O.O.O.X.+...X.+...K ..X. .` ` ",
"O.&.%.%.%.%.@.%.%.%.&.%.%.%.%.&.%.@.~ } &.&.%.*.%.] %.@.@.%.O.$.%.%.$.$.| | @.#.+.#.O.+.#.+.T +.X.O...} X.+.X.X.X... .o.X.X.` W ",
"@.} %.%.&.%.@.%.$.$.*.} $.$.%.&.$.$.] @.&.%.%.[ &.%.$.$.&.O.} %.$.$.%.$.@.{ ^ ] %./ X.O.^ T [ +.+.X.} +.} ..X.X.o...W X. .X. .W ",
"$.$.%.| &.$.&.%.&.&.$.&.%.%.&.&.%.$.&.%.%.&.%.~ %.$.%.$.%.$.$.$.O.%.%.} | #.O.O.+./ / Z X./ +.+...( +.X.} ..X.X.X.X.X.X.o. . .J ",
"$.%.} ^ $.%.[ %.&.} %.%.&.&.%.%.&.%.$.%.%.$.&.%.$.%.@.O.%.$.%.} O.$.$.O.#.O.| O./ { ] ( X.+.[ +.O.X...+.+.T ..+...W o.X.p W  .! ",
"&.$.@.%.%.&.~ O.O.( $.%.&.%.&.&.&.%.&.@.( &.K ~ &.%.O.$.&.$.O.O.%.$.#.@.[ #.#.@.{ ^ { X.X.X.X.] +.+.X.+.n J ..o...X... .W .. .` ",
"&.%.%.&.$.| $.$.$.$.@.%.%.%.%.%.@.%.$.$.$.&.} } +.O.$.%.$.&.$.$.%.$.#.} ^ $.@.] [ Y ] ] X.O.Y O.( ..+.../ ` o./ W .. .W ` `  . .",
"K } @.~ | } | O.%.$.%.%.%.%.&.} ~ $.$.&.$.@.&.&.O.} %.$.%.( O.| O.%.%.] ^ #.O.O.@.[ +./ ] +.J ....} X...........X...X. .W  . .W ",
"@.$.%.} $.%.$.O.%.%.} %.%.%.$.} %.$.%.%.%./ ~ %.O.%.$.$.%.( } O.O.} O.| ^ #.O.#.O.+.+.X.X.[ X./ } ../ ../ ../ .. .X. . . ...W W ",
"} | ( V &.%.$.| O.( K &.%.$.} %.$.&.( f %.$.$.} } } $.$.$.%.O.( @.O.^ Y #.O.@.@.+.+.T K X.( / ..( ( ` ..` ` ` ..n `  . . . . .` ",
"} Z ~ ~ %.( } $.O.$.@.%.%.( O.@.$.%.$.( } O.O.} } $.$.$.O.( &.} | #.O.{ O.#.+.^ O.` ] ....../ ..X.........` ` .. . . . . . .` ` ",
"%.@.$.$.$.} | | | $.$.$.$.} } %.$.O.$.( } O.( O.O.O.O.$.} } $.{ | [ #.@.O.[ { / O.] T { +.` o.+.X.X.( ....o. . . . .` H  . . .` ",
"V @.$.$.~ ( %.| | %.$.$.@.} %.O.~ $.$.$.O.@.~ $.%.| @.| } [ [ } _ [ { O.O.O.^ #.{ { ....X.T ..( X.X...o...W .. .H  . .J  . . .W ",
"F | ] | } $.| | ] @.( | ] @.%.| } | $.| [ O.} } ] $.O.O.] [ [ | ] #.{ @.{ ] { X.{ ` ] ] T #.X.` X.X.` o./ W  .X.J W  .o. . . . .",
"$.] ) } ] | | | O.@.} O.| $.@.| } O./ O.~ ( } ] ~ %.O.] #.@.@.O.@.O.{ @.$.] { #.X.` ` X.` X.[ / X.` / o.H W .... . . .` J  .` ` ",
"| [ ] } ] @.| | O.} } O.$.@.@.| O.O.[ | [ [ ] T O.O.L { @.| O.#.@.{ { @.[ O.` Z ` [ [ X.[ X.X.` ` ' X.' /  . . .`  . .J `  .` ` ",
"} | ] ^ | | [ [ ( ~ @.O.@.O.| { O.| O.~ ~ O.[ { @.O.[ ] @.{ / { ^ { { | Y { X._ [ { X.` / ` W { ' ` o.J J W `  .` W J W  . . .! ",
"[ { [ ] | | | | ~ V | O.| @.{ | } T [ ] O.| T ] O.{ ] ] X.{ { _ ] ^ [ | X.X.[ { [ { ' [ _ T X.' ` ' ` T  .W  .W W  .` !  . .` ` ",
"] | ~ ) { | [ [ | | $.O.| { [ | { | { [ E O.{ O.E O.] [ ] O.V / #./ Z / / O.X.L _ X.` [ X.X._ ` ....' W `  . .` ` ` !  . . .` W ",
"| ] ] { [ [ ] T { O.Z ] | { { | [ ] ] { / { { ] ^ @.{ X.[ [ ^ [ { X./ ` o.X.[ X.X.{ { T E W W X.'  .' _ ` ` ! !  .P ! `  . .` W ",
"{ { ] ] { { _ Z [ | ] [ | { [ / | ] ] } O.[ O./ ^ { [ / ^ ] / X.O._ _ [ _ [ [ _ { ] ` P W P W U ' / ` W H  .! ` ` `  .!  . .! ! ",
"] { ] ) ) m ) _ } _ _ ^ / { ^ ] _ ] [ { ^ { O.] ] { O.T P { ] { { [ _ ` W X._ _ { W ' _ _ { ' n ! U ! P U  .! ! ! P !  .! H  .! ",
"_ ] ) { G A ^ $ | ) ^ Y ] { _ ] { ] { Y S _ f _ | J K P ] K Y X.T / { _ _ X./ { _ E / W ` ` E ` U W `  .H W  .! P P P  . .H  .! ",
") ] ] ) ^ ) G b ^ ) ^ F ^ ) ] Z _ { ) ^ ^ T R / E ] _ / ` T ] { Y / ` _ { { W ] ` Y W L ' W c ! W !  .! y n  .! ! ! P !  .! ! ! ",
"_ ] _ G ] ~ S Y Y s ^ ] F ^ Z ^ _ R S ] Y L ] [ _ ] _ ] / T { ] T / ^ _ { W L [ / W T ` ' L H E W ! U U H ! ! U !  .`  .P P ! W ",
") ] ^ ) Q A ^ ) C Z ^ ^ ] R & R S ) ^ ) ^ ) ) ^ [ ) s Y / ^ [ [ T E / _ ] Z J [ ` ` E T P  .H L ! ! W W H U U U ! H U ! W P ! W ",
"C ) G E ) ) ) ~ Y R F Z m ) _ ) C ) ] R E _ ) ) _ ^ R ^ ) _ V ^ { _ E ^ _ / [ ^ E / ` L n ' _ E ! ! W W ! U L ! ! U U H ! ! p W ",
"] ) R ^ G ) G ) Z S ^ R Y Y S ^ F ^ ^ ) ) ) _ ] n G R _ ^ U E Y E V ^ _ / E _ / _ _ E H ! n   ! ! ! W W Q U ! ! n ! U U ! H H U ",
"G ] G ^ R ) ) ) ) ~ G F S R G ^ ) ^ C E E ) ) ^ ) ^ L _ ) ) _ _ ^ Z E _ E R T E n L E y I L y W ! P L U ! U H U H ! U ! ! c U ! ",
"R ^ R ^ R Y ) Q A F Y ^ a Z ^ R ^ R Z ) Y b _ n a d F ^ ) c c C E Q ^ E U L Y U @ E E _ E Y W W ! M U W n i U L y L U ! U ' H B ",
"_ x E ^ _ a m ^ F C G F Z S Y S F G F Y V G L s S Z Z 4 E U Z L E R Y U E S Y b E Q L J W U I P U L W E v U n U U H ! ! H B B H ",
"G G E G E C F Z R R Z C R R S G G s C l % C C l R L C S C b E I I R I L I M R L v Y y y _ E I c 2 M c ! U L U Q U U ! U ! B L L ",
"C E ) R ^ C Y a G l m R G S G E C F F C A A S Z m C S Z A Y A I S I I I Z C v M M U I I M c I L L I L L y B U v U U U U ! ! B B ",
"Y E S G Y A x A S G R l S 9 a S A j x A l S F x m C m a m S S S l m S Y C m b Z R h > R h 2 h 2 B v B L L L L L U U i U L y B i ",
"S G Y G l S m Y G C C C S A V l S x V S S A C s m l A m a s S l M S m s l v S m M h v c L L M v H E M M U L U U i U W ! U v H u ",
"A S E Y S 3 G z G E r b G G S x A g g S C S C r a x A x a l S a x m m m m a S v l I h s S M L M I M i v U U U Q i U X y ! H I w ",
"S Y ) 9 a G S x a l F F r 9 G A x C S z j C l a 7 l A x m j A S h m 6 h D m 0 u S s u A A B 7 B v i B H L I L v n U 7 i Q i I B ",
"S S R F x S C C 3 9 F 3 r g S z C z C x x C x j a 3 0 x g h h a w h h 9 u B h x B i v B B m u B v B i H B U U i i H ! U i B B B ",
"G C C A x S A G g g S j a S z l C r x r r z g C g 9 + g g g m g A x m 9 i N = : w i B N B i B S U i : i i Q U i i y U U U B B i ",
"A C a G x A G x r r l x z C z A x t z r t x r g j r t j z g j g ; j m j k x < 7 N N i i B v N B B y B B B y U B B B B i i i + : ",
"x g g 9 S A A g l r r a r t C z a j g j t z r z o o # g g w j j 9 t O g k x g x v N B N 9 k i v i i i U i # U B i H i U B i = i ",
"x r x r G z x x l z A 3 r r 3 j r r r z t j t z 6 6 t < w t j 8 e j ; j e 8 k k # e i N i B i i i i i i i U I i 5 1 i 7 B B i i ",
"g t C C l C a A x g r t * r r t t j , r t * q t g g g g j 8 e e 5 j e t 6 ; j i e e i i i i i i i i i B i U I i i B B N i i i i ",
"x r 5 r . A C S G r 5 z r r x r q g j , t q q t r q q t q q g t e t 8 q e e e e e i i 8 i i e 8 # i 1 i i % i U i B i B i i i e ",
"x C C r j g z l - r z r r t r r z g t r t , 8 t - , , r e e e - 8 e e q e 8 - e e e i 5 - e i i i i i : i : i i U i i N , e i e "
};
