/* XPM */
static char *_7bded3cb6564397b198b75182dae0e6GLWffbsBeupVBHMD[] = {
/* columns rows colors chars-per-pixel */
"64 64 179 2 ",
"   c None",
".  c #143DC5",
"X  c #153FC8",
"o  c #1640C7",
"O  c #1C45CC",
"+  c #1F49CD",
"@  c #224BCE",
"#  c #2B52CF",
"$  c #3056CF",
"%  c #234DD2",
"&  c #284FD1",
"*  c #2650D4",
"=  c #2B53D4",
"-  c #2C55DA",
";  c #2F58DD",
":  c #3156D2",
">  c #345AD4",
",  c #395ED4",
"<  c #3057DA",
"1  c #325BDD",
"2  c #395FDB",
"3  c #3D61D6",
"4  c #3D62DC",
"5  c #355DE1",
"6  c #385FE2",
"7  c #3C63E4",
"8  c #4265D6",
"9  c #4668D7",
"0  c #496BD7",
"q  c #4266DB",
"w  c #4669DC",
"e  c #4B6DDB",
"r  c #4F70DC",
"t  c #5173DE",
"y  c #4067E5",
"u  c #436AE6",
"i  c #4A6EE3",
"p  c #466CE8",
"a  c #496EE9",
"s  c #4D71E4",
"d  c #4D72EB",
"f  c #5475E3",
"g  c #5778E3",
"h  c #5C7DE7",
"j  c #5D7DE7",
"k  c #5C7CE6",
"l  c #5E7DE7",
"z  c #5D7EE7",
"x  c #5C7CE5",
"c  c #597AE5",
"v  c #5276EC",
"b  c #5579ED",
"n  c #587AE8",
"m  c #5A7BE9",
"M  c #5B7DE9",
"N  c #5B7EE9",
"B  c #597CEA",
"V  c #5B7CEA",
"C  c #5B7DEB",
"Z  c #5D7DE8",
"A  c #5E7DE8",
"S  c #5D7EE9",
"D  c #5D7EE8",
"F  c #5E7EE8",
"G  c #5F7EE8",
"H  c #5F7FE9",
"J  c #5E7FE9",
"K  c #5D7FEA",
"L  c #5C7EEA",
"P  c #5F7FEA",
"I  c #5D7DEC",
"U  c #5D7EED",
"Y  c #5E7FED",
"T  c #5F7FED",
"R  c #5E7FEC",
"E  c #597CEE",
"W  c #5679F0",
"Q  c #5B7DF0",
"!  c #5F80E9",
"~  c #5E80EB",
"^  c #5E80EC",
"/  c #5F80EE",
"(  c #5F80EF",
")  c #5E80F1",
"_  c #6080E9",
"`  c #6180E9",
"'  c #6080EA",
"]  c #6181EA",
"[  c #6080EB",
"{  c #6181EB",
"}  c #6180EB",
"|  c #6281EB",
" . c #6182EB",
".. c #6081EC",
"X. c #6080ED",
"o. c #6281EC",
"O. c #6082ED",
"+. c #6183ED",
"@. c #6382EC",
"#. c #6383EC",
"$. c #6282ED",
"%. c #6081EE",
"&. c #6081EF",
"*. c #6181EF",
"=. c #6283EE",
"-. c #6282EF",
";. c #6283EF",
":. c #6483EC",
">. c #6384ED",
",. c #6284EE",
"<. c #6384EE",
"1. c #6385EF",
"2. c #6484EE",
"3. c #6485EE",
"4. c #6585EE",
"5. c #6485EF",
"6. c #6585EF",
"7. c #6685EF",
"8. c #6685EE",
"9. c #6586EF",
"0. c #6686EF",
"q. c #6686EE",
"w. c #6082F0",
"e. c #6182F0",
"r. c #6282F1",
"t. c #6283F1",
"y. c #6383F1",
"u. c #6384F1",
"i. c #6484F0",
"p. c #6485F0",
"a. c #6485F1",
"s. c #6585F1",
"d. c #6586F0",
"f. c #6587F0",
"g. c #6586F1",
"h. c #6687F0",
"j. c #6787F0",
"k. c #6687F1",
"l. c #6787F1",
"z. c #6484F2",
"x. c #6485F2",
"c. c #6585F2",
"v. c #6486F2",
"b. c #6586F3",
"n. c #6686F2",
"m. c #6687F2",
"M. c #6787F2",
"N. c #6686F3",
"B. c #6687F3",
"V. c #6787F3",
"C. c #6586F4",
"Z. c #6587F4",
"A. c #6686F4",
"S. c #6687F4",
"D. c #6787F4",
"F. c #6284F3",
"G. c #6887F3",
"H. c #6887F4",
"J. c #6688F0",
"K. c #6688F1",
"L. c #6788F1",
"P. c #6788F2",
"I. c #6788F3",
"U. c #6688F4",
"Y. c #6788F4",
"T. c #6688F5",
"R. c #6788F5",
"E. c #6888F1",
"W. c #6888F2",
"Q. c #6889F2",
"!. c #6888F3",
"~. c #6889F3",
"^. c #6989F3",
"/. c #6888F4",
"(. c #6889F4",
"). c #6989F4",
"_. c #6888F5",
"`. c #6889F5",
"'. c #6989F5",
/* pixels */
"                                                                                                                                ",
"                                                                                                                                ",
"                                                                                                                                ",
"                                                                                                                                ",
"                                                                                                                                ",
"                                                                                                                                ",
"                                                                                                                                ",
"                                                                                                                                ",
"                                                                                                                                ",
"                        r t t g t t x t t t t t t t t t t e t e r r r r 0 0 e e e e t e 0 0 e 0 0 0 e 9                         ",
"                      e t g g g t x g f x t x t t f t t t t t t t t r t t t t t t t t e r t r r r r e e e                       ",
"                    e t t t x x l x l l ! l x x l c x c x g c g g x t g x g t f x t x t g g t f t t f t r e                     ",
"                  9 0 t g g x ! l L #.L #._ _ _ _ _ ! ! ! l G l _ l l l l l l l G x ! l l x x x x g g t t r e                   ",
"                  9 e s g x x ! #.#.#.#.#.:.:.:.:.#.#.#.:.:.:.#.:.#.#.:.#.#.#.#.:.` ] ] _ ! l l l x c c f r t                   ",
"                  9 e r f x N ! #.:.5.5.5.:.j.j.5.f.5.5.5.5.f.s.5.5.5.5...5.5.5.:.5.5.:.#.] ] #.H L x f f t t                   ",
"                  9 e r f n ! ..,.5.5.I.j.j.j.Q.j.j.j.Q.Q.Q.Q.Q.j.j.j.f.s.f.j.j.f.j.f.5.5.5.5.,...U N N f f t                   ",
"                  9 w t f N L ..5.5.I.f.I.Q.Q.Q.~.~.~.~.~.~.(.(.Q./.Q.Q.s.Q.s.Q.f.I.I.s.I.5.s.,...! N c f f e                   ",
"                  8 9 r f f U ....s.I.I.I.Q.Q.Q.~.(.(.(.(.(.(.(./././.Q.Q.T.Q.I.Q.I.I.I.s.I.s.,...( ( f f r e                   ",
"                  8 w r f n L ..y.z.s.s.D.Q.G.Q.~.(.`.`.(.(.(.'././././././.T.I.Q.Q.I.I.I.s.s.,...U N n f i e                   ",
"                  8 9 i f n N U ..s.s.s.s./.s.G.T.I.U.T./././.'./././.T././.T.T.D.H.I.I.s.s.F...Q U N f f r w                   ",
"                  3 w e f v n U ( y.,.F.s.s.T.s.`.T.T.T.T.T.T.T./.T.D.D.Z.T.Z.Z.s.C.Z.F.s.s.y.) T L n f s w w                   ",
"                  3 8 e s n n N ( ) y.F.C.F.C.C.) Z.T.T.T.T.) T.T.T.C.C.Z.Z.Z.Z.D.C.C.s.F.y.y.) U E v f s w w                   ",
"                  3 8 e s f n E E ( ( y.F.F.F.F.T.T.) T.) T.) T.D.F.F.F.Z.) F.C.F.F.F.F.y.U y.U U b v f s w 8                   ",
"                  3 4 w i f n E E ( ) ( ) ) y.) ) T.) T.) ) ) ) F.F.Q F.) C.) ) F.F.) ) y.) E U N n f f e q 8                   ",
"                  , 3 w e f v f B E Q ) ) ) ) ) ) ) ) ) ) ) ) ) Q Q Q y.Q F.Q T ) ) ) ) ) E U E b g f s i 8 8                   ",
"                  , 3 q i s v v b B E Q Q ) E Q ) Q Q Q ) ) ) W Q Q Q Q Q Q Q Q Q Q ) Q Q E b b n v s i q 8 ,                   ",
"                  , 3 q e i f v b b B W Q Q E Q Q Q Q Q W ) W ) Q Q Q Q Q Q Q Q Q Q Q Q E b b b v s s i q 2 ,                   ",
"                  , , 3 u s s v v b B W W W B W W Q W W W ) W W Q Q b Q W Q Q Q Q E W W b b b n v v i w w 3 ,                   ",
"                  > , 8 u i s d v v n b b b b b W W W W v W W W W W W W W W W W W W W W b b v v s s i i 4 , >                   ",
"                  > , 4 w w s s d v v v d b b W W W W W v W W W W W v W v v W W v W W v v v v v v i i q 4 , >                   ",
"                  > > 3 q w i d s d v v d v d b v v v W d W v W d v v v v v d W v v v v v v v d i i i q 3 , >                   ",
"                  : > 3 y u i i d d d v d b v d v v d d v d d d v d d d v v d d d v d v v a s s a i y q 4 > :                   ",
"                  $ > 1 4 w p i 7 d ) 7 d ) d d d d 7 W d d d d d d d d d d d d d d d d d d d s p i q 4 , > =                   ",
"                  # > 3 4 q u u ) d 7 ) 7 7 d d d d W W a d d d d d a a d a a d a d d a d a a s p u u 4 , > $                   ",
"                  : : 4 4 u u i 7 7 ) 7 ) 7 d d 7 W d 7 7 W a a a a a a a a a a a a a a a a p p u q q 4 2 > $                   ",
"                  # : 4 3 4 q u 7 ) 7 7 ) 7 7 ) d 7 d 7 d 7 a a p p p p p p p p a a a a a p p u u u 7 4 , : #                   ",
"                  # > , 2 4 7 u 7 ) 7 7 7 d 7 7 7 7 d 7 a p 7 a 7 a 7 d 7 p p 7 7 a p a p u u u u 4 4 2 > = #                   ",
"                  = = > 2 7 7 4 7 7 d 7 d 7 d 7 7 d d 7 7 p a 7 a 7 a 7 p p 7 p p p p 7 u u u u u 7 4 2 > # #                   ",
"                  = : > 2 4 4 7 7 7 7 7 7 d 7 7 7 7 7 7 p 7 7 7 7 7 a 7 a 7 p 7 7 p 7 u u 7 u 7 7 7 4 2 > = #                   ",
"                  # = > 2 4 4 7 7 ) 7 7 7 d 7 d 7 d 7 7 7 7 7 7 7 7 7 7 7 7 p 7 p 7 u u u 7 7 7 7 4 4 2 > = #                   ",
"                  = = > 1 4 5 7 7 7 7 7 7 7 7 7 7 7 7 7 7 7 7 7 7 7 7 7 7 7 7 7 7 7 7 7 7 7 7 7 7 7 5 2 > = #                   ",
"                  # $ : 1 1 2 7 7 7 7 7 7 7 7 7 7 7 7 7 7 7 7 7 7 7 7 7 5 7 7 7 7 7 7 7 7 7 7 7 7 5 2 > : * #                   ",
"                  = = ; 1 4 2 2 7 7 7 7 7 7 7 7 7 7 5 5 5 5 7 5 7 5 7 7 5 7 5 5 5 7 7 7 7 7 7 7 2 2 2 1 : = &                   ",
"                  # # : > 1 1 7 7 7 5 7 5 5 7 7 5 5 5 5 5 7 5 7 5 5 7 7 5 5 5 5 7 7 7 7 5 7 5 7 5 5 1 > : = #                   ",
"                  = = : > 1 1 1 5 5 5 5 5 5 5 7 5 5 5 5 5 5 5 5 5 5 5 5 5 5 5 5 5 5 5 5 5 5 5 5 2 1 > ; > * #                   ",
"                  # # = - > 1 1 1 5 5 5 5 5 5 5 5 5 5 5 5 ; 5 ; 5 5 5 5 ; 5 5 5 5 5 5 5 5 5 5 5 5 1 > - = * &                   ",
"                  = * = 1 1 1 1 1 1 5 ; 5 5 ; ; ; ; 5 ; ; ; ; ; ; ; ; ; ; ; 5 ; 5 5 5 5 5 ; 5 ; 1 > ; - = # *                   ",
"                  & * = = = - 1 1 1 ; ; ; ; ; ; ; ; ; ; ; ; ; ; ; ; ; ; ; ; ; ; ; ; ; ; ; ; ; ; ; ; ; = = * @                   ",
"                  @ & * = = > = - - - - - - - - - - - - - - - - - - - - - - - - - - - - - - - - - - = = & & @                   ",
"                  @ @ & * * = - - = = - - = * - - * % - - * * * * * * - * - * - * - - - - = - = = = = * @ @ @                   ",
"                  @ @ @ % % % * % % * * % % * % % % % % % % % % % % % % % % % % % % % % * % = % % % % % @ @ @                   ",
"                  @ O + @ @ @ % % % % % % % % + % % % % % O % % % % % O % % % + % % % % % % @ @ % @ @ @ @ O O                   ",
"                    O O O O O O O O O O O O O O O O O O O O O O X O O O O O O O O O O O O O O O O O O O o O                     ",
"                      o X . . o X X o o X X X X X X X X X X X X X X X X X . X X X X X X X X o o X o X X o                       ",
"                        . . . . . . . X X . X X . X . . . . . X X X X X . . . . . . X . X . . X . . . .                         ",
"                                                                                                                                ",
"                                                                                                                                ",
"                                                                                                                                ",
"                                                                                                                                ",
"                                                                                                                                ",
"                                                                                                                                ",
"                                                                                                                                ",
"                                                                                                                                ",
"                                                                                                                                "
};
