/* XPM */
static char *_6139_1cccc5b19b15f5959173ced9bb1caf608f0614f85cd288f702efc43dff28be6e[] = {
/* columns rows colors chars-per-pixel */
"64 64 104 2 ",
"   c #0535C8",
".  c #0534C9",
"X  c #0535C9",
"o  c #0635C8",
"O  c #0735C8",
"+  c #0634C9",
"@  c #0635C9",
"#  c #0735C9",
"$  c #0536C9",
"%  c #0636C9",
"&  c #0736C9",
"*  c #0535CA",
"=  c #0635CA",
"-  c #0735CA",
";  c #0736CA",
":  c #0937C9",
">  c #0936CA",
",  c #0937CA",
"<  c #0A37CA",
"1  c #0639C9",
"2  c #073AC9",
"3  c #073FC8",
"4  c #0838CA",
"5  c #0938CA",
"6  c #0E3BCB",
"7  c #083CC8",
"8  c #113FCC",
"9  c #0849C7",
"0  c #0845C8",
"q  c #1440CC",
"w  c #1642CC",
"e  c #1E4ACE",
"r  c #2751CF",
"t  c #3059D2",
"y  c #3960D3",
"u  c #3960D4",
"i  c #3D63D4",
"p  c #3C6CD3",
"a  c #456AD7",
"s  c #476BD7",
"d  c #4B6FD7",
"f  c #4F71D8",
"g  c #597ADB",
"h  c #5D7EDB",
"j  c #19DABE",
"k  c #19DFBD",
"l  c #19DCBF",
"z  c #18DFBE",
"x  c #1AE4BD",
"c  c #1BE4BD",
"v  c #1AE5BD",
"b  c #19E6BD",
"n  c #1AE6BD",
"m  c #19E4BE",
"M  c #1AE4BE",
"N  c #1BE4BE",
"B  c #1AE5BE",
"V  c #1AE4BF",
"C  c #1BE4BF",
"Z  c #1AE5BF",
"A  c #19E6BE",
"S  c #19E6BF",
"D  c #1AE6BE",
"F  c #1AE6BF",
"G  c #1CE5BF",
"H  c #1191C3",
"J  c #129AC3",
"K  c #13A2C2",
"L  c #13A4C2",
"P  c #14A9C2",
"I  c #14AEC1",
"U  c #14BAC0",
"Y  c #6F8DDF",
"T  c #7491E0",
"R  c #7794E1",
"E  c #7D99E1",
"W  c #7F9AE3",
"Q  c #16C6C0",
"!  c #16CFC0",
"~  c #19CCC0",
"^  c #21DDC2",
"/  c #27E5C1",
"(  c #59E4D1",
")  c #87A1E4",
"_  c #8EA6E6",
"`  c #8FA8E6",
"'  c #98AFE7",
"]  c #9DB3E9",
"[  c #80D1DE",
"{  c #B0C2EC",
"}  c #B1C4ED",
"|  c #B8C9EF",
" . c #B9CAEE",
".. c #99E2E3",
"X. c #C0D0F0",
"o. c #C8D7F2",
"O. c #D0DEF3",
"+. c #C5E1F0",
"@. c #D3E1F5",
"#. c #D4E1F4",
"$. c #D5E1F4",
"%. c #D4E2F4",
"&. c #D5E2F4",
"*. c None",
/* pixels */
"*.*.*.*.*.*.*.*.*.*.*.*.*.*.*.*.*.*.*.*.*.*.*.*.*.*.*.*.*.*.*.*.*.*.*.*.*.*.*.*.*.*.*.*.*.*.*.*.*.*.*.*.*.*.*.*.*.*.*.*.*.*.*.*.",
"*.*.*.*.*.*.*.*.*.*.*.*.*.*.*.*.*.*.*.*.*.*.*.*.*.*.*.*.*.*.*.*.*.*.*.*.*.*.*.*.*.*.*.*.*.*.*.*.*.A Z v *.*.*.*.*.*.*.*.*.*.*.*.",
"*.*.*.*.*.*.*.*.*.*.*.*.*.*.*.*.*.*.*.*.*.*.*.*.*.*.*.*.*.*.*.*.*.*.*.*.*.*.*.*.*.*.*.*.*.*.*.B B B Z D B B *.*.*.*.*.*.*.*.*.*.",
"*.*.*.*.*.*.*.*.*.*.*.*.*.*.*.*.*.*.*.*.*.*.*.*.*.*.*.*.*.*.*.*.*.*.*.*.*.*.*.*.*.*.*.*.*.*.B B *.*.*.*.*.N B *.*.*.*.*.*.*.*.*.",
"*.*.*.*.*.*.*.*.*.*.*.*.*.*.*.*.*.*.*.*.*.*.*.*.*.*.*.*.*.*.*.*.*.*.*.*.*.*.*.*.*.*.*.*.*.B B *.*.*.*.*.*.*.B B *.*.*.*.*.*.*.*.",
"*.*.*.*.*.*.*.*.*.*.*.*.*.*.*.*.*.*.*.*.*.*.*.*.*.*.*.*.*.*.*.*.*.*.*.*.*.*.*.*.*.*.*.*.*.B *.*.*.*.*.*.*.*.*.B B *.*.*.*.*.*.*.",
"*.*.*.*.*.*.*.*.*.*.*.*.*.*.*.*.*.*.*.*.*.*.*.*.*.*.*.*.*.*.*.*.*.*.*.*.*.*.*.*.*.*.*.*.B B *.*.*.*.*.*.*.*.*.B B *.*.*.*.*.*.*.",
"*.*.*.*.*.*.*.*.*.*.*.*.*.*.*.*.*.*.*.*.*.*.*.*.*.*.*.*.*.*.*.*.*.*.*.*.*.*.*.*.*.*.*.*.Z B *.*.*.*.*.*.*.*.*.Z B *.*.*.*.*.*.*.",
"*.*.*.*.*.*.*.*.*.*.*.*.*.*.*.*.*.*.*.*.*.*.*.*.*.*.*.*.*.*.*.*.*.*.*.*.*.*.*.*.*.*.*.*.C B *.*.*.*.*.*.*.*.*.c B *.*.*.*.*.*.*.",
"*.*.*.*.*.*.*.*.*.*.*.*.*.*.*.*.*.*.*.*.*.*.*.*.*.*.*.*.*.*.*.*.*.*.*.*.*.*.*.*.*.*.*.*.D B *.*.*.*.*.*.*.*.*.B F *.*.*.*.*.*.*.",
"*.*.*.*.*.*.*.*.*.*.*.*.*.*.*.*.*.*.*.*.*.*.*.*.*.*.*.*.*.*.*.B N *.*.*.*.*.*.*.*.*.*.*.*.B N *.*.*.*.*.*.*.*.B *.*.*.*.*.*.*.*.",
"*.*.*.*.*.*.*.*.*.*.*.*.*.*.*.*.*.*.*.*.*.*.*.*.*.*.*.*.*.*.B v B A *.*.*.*.*.*.*.*.*.*.*.Z B v *.*.*.*.*.*.D v *.*.*.*.*.*.*.*.",
"*.*.*.*.*.*.*.*.*.*.*.B B B B B B B B N *.*.*.*.*.*.*.*.*.B C *.*.B B *.*.*.*.*.*.*.*.*.*.*.B B v *.*.*.B B Z *.*.*.*.*.*.*.*.*.",
"*.*.*.*.*.*.*.*.*.*.*.B D *.*.*.*.*.B B *.*.*.*.*.*.*.*.B B *.*.*.A B v *.*.*.*.*.*.*.*.*.*.*.*.B B B B B *.*.*.*.*.*.*.*.*.*.*.",
"*.*.*.*.*.*.*.*.*.*.*.B D *.*.*.*.*.B B *.*.*.*.*.*.*.B B *.*.*.*.*.v B *.*.*.*.*.*.*.*.*.*.*.*.*.*.*.*.*.*.*.*.*.*.*.*.*.*.*.*.",
"*.*.*.*.*.*.*.*.*.*.*.B B B B B B B B D *.*.*.*.*.*.B B *.*.*.*.*.*.*.B B Z *.*.*.*.*.*.*.*.*.*.*.*.*.*.*.*.*.*.*.*.*.*.*.*.*.*.",
"*.*.*.*.*.*.*.*.*.*.*.*.B B *.*.*.B v *.*.*.*.*.*.B B *.*.*.*.*.*.*.*.*.B B B *.*.*.*.*.*.*.*.*.*.*.*.*.*.*.*.*.*.*.*.*.*.*.*.*.",
"*.*.*.*.*.*.*.*.*.*.*.*.B S *.*.*.Z B *.*.*.*.*.B C *.*.*.*.*.Z *.*.*.*.*.B B N *.*.*.*.*.*.*.*.*.*.*.*.*.*.*.*.*.*.*.*.*.*.*.*.",
"*.*.*.*.*.*.*.*.*.*.*.*.B S *.*.*.Z B *.*.*.B B v *.*.*.*.*.B B B *.*.*.*.*.*.B F *.*.*.*.*.*.*.*.*.*.*.*.*.*.*.*.*.*.*.*.*.*.*.",
"*.*.*.*.*.*.*.*.*.*.*.*.B S *.*.*.Z B *.*.B B *.*.*.*.*.*.B B *.Z B *.*.*.*.*.*.B D *.*.*.*.*.*.*.*.*.*.*.*.*.*.*.*.*.*.*.*.*.*.",
"*.*.*.*.*.*.*.*.*.*.*.*.B S *.*.*.Z B *.B B *.*.*.*.*.*.B B *.*.*.B B *.*.*.*.*.*.B B *.*.*.*.*.*.*.*.*.*.*.*.*.*.*.*.*.*.*.*.*.",
"*.*.*.*.*.*.*.*.*.*.*.*.B S *.*.*.Z B B B *.*.*.*.*.*.B B *.*.*.*.*.N B *.*.*.*.*.*.D B *.*.*.*.*.*.*.*.*.*.*.*.*.*.*.*.*.*.*.*.",
"*.*.*.*.*.*.*.*.*.*.*.*.B S *.*.*.B B b *.*.*.*.*.*.B B *.*.*.*.*.*.*.F B N *.*.*.*.*.N B D *.*.*.*.*.*.*.*.*.*.*.*.*.*.*.*.*.*.",
"*.*.*.*.*.*.*.*.*.*.*.*.B S *.*.B B *.*.*.*.*.*.*.V Q 9 o o o o o o o 1 I B k *.*.*.*.*.*.B B *.*.*.*.*.*.*.*.*.*.*.*.*.*.*.*.*.",
"*.*.*.*.*.*.*.*.*.*.*.*.B A c B N *.*.*.*.*.*.N B U 7 @ @ @ @ @ @ @ @ @ @ H B B *.*.*.*.*.*.B B D *.*.*.*.*.*.*.*.*.*.*.*.*.*.*.",
"*.*.*.*.*.*.*.*.*.*.*.*.B B B c *.*.*.*.*.*.B B B *.*.*.*.*.*.*.*.*.*.*.*.*.*.B B *.*.*.*.*.*.c B B *.*.*.*.*.*.*.*.*.*.*.*.*.*.",
"*.*.*.*.*.*.*.*.*.*.*.v B B *.*.*.*.*.*.*.B B *.*.*.*.*.*.*.*.*.*.*.*.*.*.*.*.*.B B *.*.*.*.*.*.*.B B *.*.*.*.*.*.*.*.*.*.*.*.*.",
"*.*.*.*.*.*.*.*.*.*.B B D *.*.*.*.*.*.*.B N *.*.*.*.*.*.*.*.*.*.*.*.*.*.*.*.*.*.*.A B B *.*.*.*.*.*.v B B *.*.*.*.*.*.*.*.*.*.*.",
"*.*.*.*.*.*.*.*.n B Z *.*.*.*.*.*.*.B B D *.*.*.*.*.*.*.*.*.*.*.*.*.*.*.*.*.*.*.*.*.B B A *.*.*.*.*.*.*.B B N *.*.*.*.*.*.*.*.*.",
"*.*.*.*.*.*.B B D *.*.*.*.*.*.*.*.N B *.*.*.*.*.*.*.*.*.*.*.*.*.*.*.*.*.*.*.*.*.*.*.*.*.B B *.*.*.*.*.*.*.A B B *.*.*.*.*.*.*.*.",
"*.*.*.*.B B B *.*.*.*.*.*.*.*.~ M z *.*.*.*.*.*.*.*.*.*.*.@ @ @ @ @ *.*.*.*.*.*.*.*.*.*.*.j B ! *.*.*.*.*.*.*.B B B *.*.*.*.*.*.",
"*.*.B B B *.*.*.*.*.*.*.*.*.F B L 3 @ @ @ @ @ @ @ @ @ @ @ @ *.*.*.@ @ @ @ @ @ @ @ @ @ @ @ 2 J x v *.*.*.*.*.*.*.*.B B B *.*.*.*.",
"*.*.B A *.*.*.*.*.*.*.*.*.C / [ ] _ *.*.*.*.*.*.*.*.*.@ % *.*.*.*.*.= @ *.*.*.*.*.*.*.*.*.*.*.*.B B *.*.*.*.*.*.*.*.*.B B B *.*.",
"*.*.B N *.*.*.*.*.*.*.G B ( +.#.*.*.*.*.*.*.*.*.*.*.* @ *.*.*.*.*.*.*.@ *.*.*.*.*.*.*.*.*.*.*.*.*.B B B *.*.*.*.*.*.*.*.c D *.*.",
"*.*.B B *.*.*.*.*.B V ^ ..#.#.*.*.*.*.*.*.*.*.*.*.*.o # *.*.*.*.*.*.*.% + *.*.*.*.*.*.*.*.*.*.*.*.*.*.l m B *.*.*.*.*.*.N C *.*.",
"*.*.*.B *.*.*.*.B B K p #.#.#.*.*.*.*.*.*.*.*.*.*.*.. . *.*.*.*.*.*.*.@ o *.*.*.*.*.*.*.*.*.*.*.*.*.*.0 P B B *.*.*.*.*.B *.*.*.",
"*.*.*.B n *.B B F *.4 s #.#.#.*.*.*.*.*.*.*.*.*.*.*.* % *.*.*.*.*.*.*.@ *.*.*.*.*.*.*.*.*.*.*.*.*.*.*.+ @ *.v B B *.*.A B *.*.*.",
"*.*.*.B B B B *.*.*., f #.#.$.*.*.*.*.*.*.*.*.*.*.*.*.@ = *.*.*.*.*.# @ *.*.*.*.*.*.*.*.*.*.*.*.*.*.*.* @ *.*.*.B B B D v *.*.*.",
"*.*.*.*.B *.*.*.*.*.5 d  . .} *.*.*.*.*.*.*.*.*.*.*.*.o @ O *.*.*.@ @ o *.*.*.*.*.*.*.*.*.*.*.*.*.*.*.* @ *.*.*.*.*.B B *.*.*.*.",
"*.*.*.*.*.*.*.*.*.*.< @ @ @ @ @ @ *.@ @ @ @ @ @ @ @ @ @ @ @ @ @ @ @ @ @ @ @ @ @ @ @ @ @ @ @ @ @ @ @ @ @ @ *.*.*.*.*.*.*.*.*.*.*.",
"*.*.*.*.*.*.*.*.*.*.; s ` ` E *.X @ @ *.*.*.*.*.*.*.*.*.*.*.*.*.*.*.*.*.*.*.*.*.*.*.*.*.*.*.*.*.*.*.*.  @ *.*.*.*.*.*.*.*.*.*.*.",
"*.*.*.*.*.*.*.*.*.*.@ Y #.#.%.*.*.% *.*.*.*.*.*.*.*.*.*.*.*.*.*.*.*.*.*.*.*.*.*.*.*.*.*.*.*.*.*.*.*.*.*.@ *.*.*.*.*.*.*.*.*.*.*.",
"*.*.*.*.*.*.*.*.*.*.@ R #.#.&.*.*.*.*.*.*.*.*.*.*.*.*.*.*.*.*.*.*.*.*.*.*.*.*.*.*.*.*.*.*.*.*.*.*.*.*.*.@ *.*.*.*.*.*.*.*.*.*.*.",
"*.*.*.*.*.*.*.*.*.*.@ W #.#.@.*.*.*.*.*.*.*.*.@ @ @ @ @ @ @ @ @ @ @ @ @ @ @ @ @ *.*.*.*.*.*.*.*.*.*.*.*.@ *.*.*.*.*.*.*.*.*.*.*.",
"*.*.*.*.*.*.*.*.*.*.@ ) #.#.#.*.*.*.*.*.*.*.*.@ + *.*.*.*.*.*.*.*.*.*.*.*.*.*.# @ *.*.*.*.*.*.*.*.*.*.*.@ *.*.*.*.*.*.*.*.*.*.*.",
"*.*.*.*.*.*.*.*.*.*.@ ` #.#.*.*.*.*.*.*.*.*.*.% = *.+           + *.*.  $ *.*.+ @ *.*.*.*.*.*.*.*.*.*.*.@ *.*.*.*.*.*.*.*.*.*.*.",
"*.*.*.*.*.*.*.*.*.*.@ ' #.#.*.*.*.*.*.*.*.*.*.% = o @           = *.*.  = *.*.+ @ *.*.*.*.*.*.*.*.*.*.*.@ * *.*.*.*.*.*.*.*.*.*.",
"*.*.*.*.*.*.*.*.*.*.@ @ @ @ @ @ @ @ @ @ @ @ @ @ = @ + *.*.*.*.*.*.*.*.*.*.*.*.+ @ @ @ @ @ @ % *.@ @ @ @ @ o *.*.*.*.*.*.*.*.*.*.",
"*.*.*.*.*.*.*.*.*.*.@ h T T a *.*.*.*.*.*.*.*.@ = @ + *.*.*.*.*.*.*.*.*.*.*.*.+ @ *.*.*.*.* @ @ X *.*.*.@ % *.*.*.*.*.*.*.*.*.*.",
"*.*.*.*.*.*.*.*.*.*.@ { #.#.*.*.*.*.*.*.*.*.*.% = @ + *.*.*.*.*.*.*.*.*.*.*.*.+ @ *.*.*.*.*.*.*.*.*.*.*.+ @ *.*.*.*.*.*.*.*.*.*.",
"*.*.*.*.*.*.*.*.*.*.@ | #.#.*.*.*.*.*.*.*.*.*.% = @ + *.*.*.*.*.*.*.*.*.*.*.*.+ @ *.*.*.*.*.*.*.*.*.*.*.+ @ *.*.*.*.*.*.*.*.*.*.",
"*.*.*.*.*.*.*.*.*.*.@ X.#.#.*.*.*.*.*.*.*.*.*.% = @ + *.*.*.*.*.*.*.*.*.*.*.*.+ @ *.*.*.*.*.*.*.*.*.*.*.* # *.*.*.*.*.*.*.*.*.*.",
"*.*.*.*.*.*.*.*.*.*.@ o.#.#.*.*.*.*.*.*.*.*.*.% = @ + *.*.*.*.*.*.*.*.*.*.*.*.+ @ *.*.*.*.*.*.*.*.*.*.*.o @ *.*.*.*.*.*.*.*.*.*.",
"*.*.*.*.*.*.*.*.*.*.@ O.#.#.*.*.*.*.*.*.*.*.*.% = @ + *.*.*.*.*.*.*.& *.*.- *.+ @ *.*.*.*.*.*.*.*.*.*.*.*.@ *.*.*.*.*.*.*.*.*.*.",
"*.*.*.*.*.*.*.*.*.+ , #.#.#.*.*.*.*.*.*.*.*.*.% = @ + *.*.*.*.*.*.*.@ @ @ @   + @ *.*.*.*.*.*.*.*.*.*.*.*.@ *.*.*.*.*.*.*.*.*.*.",
"*.*.*.*.*.*.*.*.*.$ & q q q > @ @ @ @ @ @ @ @ @ = @ @ *.*.*.*.*.*.*.*.@ @ *.*.+ @ @ @ @ @ @ @ @ @ @ @ @ @ @ *.*.*.*.*.*.*.*.*.*.",
"*.*.*.*.*.*.*.*.*.& 6 g g g 8 - - - - - - - - @ = *.*.*.*.*.*.*.*.*.*.*.*.*.*.+ @ - - - - - - - - - - - @ @ *.*.*.*.*.*.*.*.*.*.",
"*.*.*.*.*.*.*.*.*.% e #.#.#.*.*.*.*.*.*.*.*.*.% = *.*.*.*.*.*.*.*.*.*.*.*.*.*.+ @ *.*.*.*.*.*.*.*.*.*.*.*.@ *.*.*.*.*.*.*.*.*.*.",
"*.*.*.*.*.*.*.*.*.= r #.#.#.*.*.*.*.*.*.*.*.*.% = *.*.*.*.*.*.*.*.*.*.*.*.*.*.+ @ *.*.*.*.*.*.*.*.*.*.*.*.@ *.*.*.*.*.*.*.*.*.*.",
"*.*.*.*.*.*.*.*.*.o t #.#.#.*.*.*.*.*.*.*.*.*.% = *.*.*.*.*.*.*.*.*.*.*.*.*.*.+ @ *.*.*.*.*.*.*.*.*.*.*.*.@ *.*.*.*.*.*.*.*.*.*.",
"*.*.*.*.*.*.*.*.*.# u #.#.#.*.*.*.*.*.*.*.*.*.% = *.*.*.*.*.*.*.*.*.*.*.*.*.*.+ @ *.*.*.*.*.*.*.*.*.*.*.*.@ * *.*.*.*.*.*.*.*.*.",
"*.*.*.*.*.*.*.*.*.: w i i y                   @ %                             # @                         @ % *.*.*.*.*.*.*.*.*.",
"*.*.*.*.*.*.*.*.*.*.                                                                                        *.*.*.*.*.*.*.*.*.*.",
"*.*.*.*.*.*.*.*.*.*.*.*.*.*.*.*.*.*.*.*.*.*.*.*.*.*.*.*.*.*.*.*.*.*.*.*.*.*.*.*.*.*.*.*.*.*.*.*.*.*.*.*.*.*.*.*.*.*.*.*.*.*.*.*."
};
