/* XPM */
static char *_50741751b4f457cbe2170072030decbChamXZMCaT9Harjr[] = {
/* columns rows colors chars-per-pixel */
"64 64 235 2 ",
"   c #010101",
".  c #070507",
"X  c #030B04",
"o  c #090D06",
"O  c #060E09",
"+  c #0B0D09",
"@  c #1E0F0B",
"#  c #041306",
"$  c #091407",
"%  c #041B06",
"&  c #091B06",
"*  c #061309",
"=  c #09150B",
"-  c #061A0A",
";  c #0A1B0C",
":  c #11140D",
">  c #151A0E",
",  c #0B1511",
"<  c #0B1D11",
"1  c #0D1F18",
"2  c #151D12",
"3  c #1B1D13",
"4  c #042306",
"5  c #052B06",
"6  c #06230A",
"7  c #0B230D",
"8  c #062B0B",
"9  c #0B2C0C",
"0  c #18220F",
"q  c #112B0D",
"w  c #073A07",
"e  c #07320B",
"r  c #08330B",
"t  c #0B3A0C",
"y  c #0D2312",
"u  c #0E2B13",
"i  c #0E2219",
"p  c #0F2A19",
"a  c #122515",
"s  c #1A2213",
"d  c #112C15",
"f  c #1C2C13",
"g  c #12241A",
"h  c #122C1B",
"j  c #192D1D",
"k  c #0F3114",
"l  c #0C3A13",
"z  c #0D3419",
"x  c #123314",
"c  c #133C14",
"v  c #183D15",
"b  c #13331B",
"n  c #19341B",
"m  c #153B1B",
"M  c #193C1C",
"N  c #232A15",
"B  c #212519",
"V  c #262A19",
"C  c #242B1B",
"Z  c #39241C",
"A  c #29361B",
"S  c #122D20",
"D  c #153422",
"F  c #1C3422",
"G  c #163B21",
"H  c #193C23",
"J  c #193A29",
"K  c #193C29",
"L  c #1E3830",
"P  c #2D3621",
"I  c #243E22",
"U  c #363E26",
"Y  c #0D470F",
"T  c #0D4312",
"R  c #154316",
"E  c #194114",
"W  c #184A17",
"Q  c #15421B",
"!  c #1A451D",
"~  c #1B4C1D",
"^  c #155519",
"/  c #1C531D",
"(  c #1D5B1D",
")  c #20541F",
"_  c #235B1D",
"`  c #1F621F",
"'  c #25621E",
"]  c #134222",
"[  c #1A4423",
"{  c #154C25",
"}  c #1C4B23",
"|  c #1D452B",
" . c #1D4B2A",
".. c #1D5323",
"X. c #1F5A23",
"o. c #1D532C",
"O. c #1F5A2A",
"+. c #184F33",
"@. c #234D27",
"#. c #234728",
"$. c #214D2A",
"%. c #3A4427",
"&. c #3E4C2B",
"*. c #225424",
"=. c #225C25",
"-. c #22542C",
";. c #235C2B",
":. c #285928",
">. c #234D32",
",. c #235432",
"<. c #265536",
"1. c #255B34",
"2. c #2A5D32",
"3. c #2B5C3B",
"4. c #1F6422",
"5. c #1E6822",
"6. c #256425",
"7. c #256B22",
"8. c #2B6B24",
"9. c #25632B",
"0. c #2A642D",
"q. c #266A2B",
"w. c #2A6C2B",
"e. c #267826",
"r. c #26722C",
"t. c #2B732C",
"y. c #2A7B2C",
"u. c #347929",
"i. c #266232",
"p. c #296434",
"a. c #266935",
"s. c #2C6C34",
"d. c #2B643C",
"f. c #2D6C3A",
"g. c #356230",
"h. c #316E3C",
"j. c #2C7433",
"k. c #2D7B32",
"l. c #27713B",
"z. c #2E753B",
"x. c #2E7B3A",
"c. c #347537",
"v. c #307B34",
"b. c #31753B",
"n. c #327C3C",
"m. c #404F26",
"M. c #434D30",
"N. c #526239",
"B. c #2C5C42",
"V. c #2D6D43",
"C. c #326D42",
"Z. c #336B4B",
"A. c #2C7147",
"S. c #337442",
"D. c #357B42",
"F. c #377848",
"G. c #347A4C",
"H. c #3A7D4D",
"J. c #316B51",
"K. c #387853",
"L. c #20841D",
"P. c #288228",
"I. c #2C842E",
"U. c #2D8D2B",
"Y. c #348B2C",
"T. c #289025",
"R. c #2E8433",
"E. c #328435",
"W. c #3A8636",
"Q. c #338B36",
"!. c #33823B",
"~. c #38843F",
"^. c #358B3B",
"/. c #398C3E",
"(. c #339533",
"). c #399437",
"_. c #369834",
"`. c #36933B",
"'. c #3A933C",
"]. c #3D9B3C",
"[. c #35A233",
"{. c #409C3C",
"}. c #358342",
"|. c #3A8543",
" X c #368946",
".X c #3C8C44",
"XX c #3D854C",
"oX c #3C8C4B",
"OX c #3B9244",
"+X c #389645",
"@X c #3D9C44",
"#X c #3E914B",
"$X c #388754",
"%X c #3C8A52",
"&X c #3C9155",
"*X c #3EA442",
"=X c #388363",
"-X c #428C48",
";X c #419443",
":X c #429B44",
">X c #43944B",
",X c #429B4B",
"<X c #458055",
"1X c #438B53",
"2X c #44835B",
"3X c #548C5E",
"4X c #449353",
"5X c #489959",
"6X c #559F5F",
"7X c #43A345",
"8X c #43AE43",
"9X c #45A24A",
"0X c #45A94B",
"qX c #4BB54A",
"wX c #4CA254",
"eX c #4BA756",
"rX c #50A356",
"tX c #53AB5D",
"yX c #51B353",
"uX c #56B25D",
"iX c #468D61",
"pX c #4F9663",
"aX c #4D9B62",
"sX c #559B69",
"dX c #51A360",
"fX c #5AAA6A",
"gX c #59B061",
"hX c #56A674",
"jX c #60A16E",
"kX c #64B56B",
"lX c #63AF71",
"zX c #6FBA76",
"xX c #70AD8A",
"cX c #6BB582",
"vX c #86B793",
/* pixels */
"  X ; a < = . * i.p.iXK.2XF.H.3. .F g 1 F #.,.1.o.y   * * u m 7 a b b } 1.v.j.p.E.k.0.w.~ # X % ! , H $.m     < < X             ",
"  = ; y =       b }.Z.Z.2XS S.$.| j g g #.oX XS.j.;.j = * ; X 7 / ~ [ -.a.t.s.i.-.[ [ ..x   X & -.[           i i < 6 . .       ",
"O   o ; O X X   X b.p.K.C.M a @.| g F L f.5X&X&X$X XH.J.V.,.h = r.j.O.9.b.s.-Xs.;.6.w.y.7   X X u f.          ; = z p X         ",
"= .         o     i.S. .f.!   ; O O 1 , ;.+Xx.&X$XR.%X=XA.a.;.X y  .G O.n.<X;X/..X@X*X*X7   X X $ =           k D +.6 * *       ",
".                 -.9.[ f.a             Q U.l.<.7 # >.G. .O.}     Q [ ..F.6X!.!.n.z.}.j.    X # # - X         X < ] -   X       ",
"  X           X = = M 7 u *             l +XK         m | { M     c m [ b.rXn.s.w.E.Q.X.  X X $ $ 7 *             $ X           ",
"  O *       7 a c 7 # - * - *             O         ; ; m b a = O y m ..b.:Xt.p. .6._.~     # $ % * & X         X               ",
"    ,     O 7 y d 7 $ * X a u       o           ; y R u d ; b ;   b Q [ n.}.9.8.*.m } y ; ; 7 7 ; ; 8 *                         ",
"        X ; = 7 a 7 = * < c u               X x Q y ^ x u 1 g.q   ; h ] k.q.;.=.y.=.M   ; 7 d a u y ; ;                         ",
"        X & = 7 d 7 = h a d ;           X ; 7 u / < ~ G h h } *   = m c s.9.X.[ / y.;   * 7 7 u u y ; ;                         ",
"      * = * 7 q b a a M ~ Q *     X     = x x < W u m #.h i I o   * x b 9.] / / b x   o * x h ~ u y ;                 X         ",
"    $ ; & ; ; 7 d M *.! ..7.*   X X * 7 7 ; R y k Q G  .h I M     ; ; u Q x m 6.=.u   X % m b m =                     X         ",
"    c v ; a x a b h.v.;. .m   X * * y d R < y x u Q [  .m 0.)     = - 9 x c z c X.      X *                       + =           ",
"  7 d c c a b M >.4Xb.0.R.~   = < ; ; * 7 u y x a c :.] n H O     - 8 y u k c 7 $       7 =                   X X               ",
"  7 y < a n @.H S.-X~.b.a.R.w.~ X.x R X.m y u h b ..9...~ c 7     - ; y 7 u ( x       $ # q               X *                   ",
"  X d W E ) Y.y.g.n.|.].t.).@Xj.r.~ X.R.^.[ y d m 0. .] m ;.c     $ * - # W R u       $ X 6 $           X X X X X X X           ",
"    * x t _ u.t.s.v.W.{.v./.n.s.E.9.w.q.x.9.; u H 1.....m ] *     O - # - c * 7 ;   ; $ X & q           * X X O # X   X         ",
"        . . 2 :.2.h.s.).n.E.v.z.!.b.x.x.@XO.; h $. .[ } ` 6.        $   7 ` R 7 o = %   & * %             ; $ & X X       X   * ",
"      h [ 7 9.9.[ s.z.v./.~.v.n.n.b.+X`.*Xm = b [ H =.b ! W         # X - ( m ;   $ # q / x x ; o           x ; X X     # O # - ",
"      G $.X.k.j.p.v.n.b./.~.|.!./.4XOX X`.u - Q H b G ! b           O O o c r ; # X # / ~ 6.=.6.=./ x       X * $       e 4 $ 4 ",
"      b o.7.j.E.OXn./.-X.X;X.X>XtX@X/.+Xj.  ; m p b D m 7         X X o   x 7 & X   X 7.! =./ 6.6.' 6.7                 % e w 5 ",
"      < a.I.q.f.z.f.n..X-XOXwXlX5X`.0XyX~   * y i b ] b O   X $ $ 8 % & X ; 7 #     . y.q.~ } 6.6.' v ) W .               X w w ",
"        [ I.j.f.b.S.-X4X4XsXzXgX5X.X@X8Xu   # < p b ..d       O X * X     ; 7 X       ( (.;.} 6.=.) M ' ' 0                 X 5 ",
"        < a.Q.R.f.b.D.-XjXvXkXyXuX9X0X=.    O ; u m m * X X               X           $ U.E.s.9.:.~ ) _ v q                     ",
"x ~ m u M A.p.0.v./.!.rXkXlXgXtXyXyX*X* .   X * < ] d o c ] ! Q ; = X .   X O           E R.n.E.w.*.@.! v W E X                 ",
"..H [ -.H 3.B.D H *.:XgXfXfXeXwX,XqXt.  X X X ; i z X y b m m Q u y y u ; ; ;         X u.qX:X4Xv.0.*._ ' _ v ;                 ",
">.<.K K >.>.J.3.H S 1XfXaXtX,X0X0X*.      = * y b ;   * b h p b h h < ; ; ; y x X   6 `.8X7X7XjX3Xc.8.) n f 0 7 X               ",
"}.d.K -.,.#.B.2X$.>.pXaX4XeX>X0X8X*     X - = p b X #   ] G p p u u y 1 i i y ; O 7.(.Q.^.>XtXgX6XrX-X0.! v x q =   X         % ",
"j.i.a.2.#.D G B.H.|.4XoXoX9X@X+X/     X X - y ; * * *   * m p h y p p y < p u X ..[.^.}.OX+X:X9X-X{.{.{.w.! a 7 % $ $ X X     % ",
"b q.[ 1 p G D H G.-X}.#X}.qXv.O   * # X O ; i - y u O     ; y i S p p y < y ; y P.5.r.x.+XOXOX:X7X{.v.p.k.6.~ d 9 8 # % O X O # ",
"[ < O y [ S b S  .}.S.@X+XE..       X   # p y < ; u X       ; 7 y z p y < ; , 7 5.5.y.!.).E.Q.'.{.'.{.c.9.~ R x 7 9 # # # X # X ",
"~ Q y [ K G b h b n. XE.-.X           O ; p < 6 y X           k 8 y | { ] u < O R T.r.U.U.j.Q.k.).~.).v.t./ ( W t 9 # # # X # # ",
"! M 9.~ i i.b D p | ,.D h O       . - - < y y y u *       X * ; < G +.+.{ ] p ;   l e.[.e.I.R.9.(.Q.Q.k.y.r.( L.^ 9 u 8 6 # # % ",
"b b ~ u i ;.h b p i 1 S | y       . - * 6 < u y u X     X = ; < i z z p 8 8 y < O   - c / P.7...U.U.Q.Q.y.(.( l k 7 l Q ] G l 8 ",
"~ b ; y y y h b S D p < S H         - 6 < < u m ;     X * * - * - - - - 8 y - - * O     X X c 4.T.e.R.k.X.R     ; $ 6 Y :.2.Q k ",
"b ! b h u u 9 = p ] i i h K         - 8 i y u u       * ; * - * * - - - < 6 * 6 O = * =       X = - 7 X           # t T ^ r = @.",
"= [ @.x u u ; X .   ; i J >.= , 1 O < u y y y         $ 7 - % X # % # # - 8 O e - =                             X T r l l e   F ",
"= 7 b x u 7 7 *     O < F >.#.h i O   y u 7               8 % 7 * 4 O % * 4 % # %                               8 T 6 t 8 7 * X ",
"X = ; ; * $ *       = h ,.g.h.H X     * y                   # 9 # % # 4 # % %                                   % * 6 l 8 4 6 & ",
"X X X q o           ; I 2.b.s.b o                                   X       X X                 = .             % O # t 8 4 e % ",
"  X O 7 $         X h @.:.$.;         .                   X #   X X     X   & X X X             o               % X % % 5 # %   ",
"  X   %             a M s M 3.i b } o.X.]     X   X X   X # -   X # X X #   X   % X           X X                   X X #     X ",
"  X   $               X H D.4X,.[ O.o.O.o.X X *     X X $ X X X X     # X X X X X   $       . X   X                         #   ",
"    # *           + H  . .1.D.i.,.1. .,.9.    X X X   X # O X X # # # # # X X X   X X       .     .                         u - ",
"      .         c 9.F.<.,.d.F.f.1.<.d.s.x   X O X   X X   % X X # % 6 e 8 - % # X X X   = .   X                           b b u ",
"    2 h o   * ! 0.j.1.C.f.C.H.S.A.XXp.p.        X           # % % O # % z y % X X # X   O X   X                         ; b u ; ",
"    < =     y } [ z.p.d.S.C.XXaXhXf.!.[       X X X         # 4 X % # # e 8 # %                 X X     + .           - ] O y * ",
"            a [ $.d.p.B.XXS.pXcXaXS.z.=       # O X           X 4 5 X % 6 * O # X         .             + B           1.o.  = O ",
"            * 9.2.S.F.<XsXxXcXaX4X5X|           X X O # # % # X 4 X % % # # # # #         X   .           B +       * ,.< X * X ",
"              m k.z.f.F.5XxXdXXX%XeXd           *   * # # # #     # 5 % 4 % #   X             ; * . $ X   + B     o y           ",
"                q a 0.5XaXaXXX|.C.h.              X X X O     O   X 5 % 5 # %   X X         O = ; * ] 1 O s V >   m y           ",
"                    #.%X2X4XF.|.p.[     X         * -     X           X % 4 4 X   #         o = * * | , . P U U   y * .         ",
"                  a f.F.XX1Xh.-X9.<   X 7 y <     * ; O     X             % 4 # # #           O     3 P = 2 N.:   u ] u <       ",
"                $ -.C.h.K..XS.-.      X y p b ; o < ; *                       % % #           O o =   > U &.N.B s ; a a b *     ",
"                M 2.S.s.F.#X-..       X u h h a ; 1 = * X                       o         o *       > N v m.%.&.s ; a G b       ",
"              ; -.,.D.f.%X$.            7 y h h < y = 7 X                             X   X h X .   O p s A s 2 &.* ; a 2       ",
"          $ o 7 *.2./.c.#.              7 y h h h j , *                               o X   y X     < , = > f = = + X   V .     ",
"              a 2.z.n.2.=               O y y a j K i * *                           o   .       o   * * .   o =         C 2     ",
"              7 } n ; o 7               * h y < < b ; X X                         .       3 > = 0 o   ; y .   O O   X   3 f     ",
"              X a ; $ a = X o             < < < < a = o X                                 O P %.0   X * * X       . $   s s     ",
"                d a ; ; = * X             = < = < y = O o                     o o       o s s %.&.N .   X   .   o X X   s 2 .   ",
"          o = = a ; j > = X X             O * = * , =   X                     + 0 +       2 C M.s :   X X o   X   : : = P :     ",
"  .   . ; a 7 > ; a F n = X                 * * O O O O                       > f $     + 2 %.P >               . > N f M.o     ",
". : Z @ ; ; ; = ; ; ; 7 0 ;                   X O O O                         A 0 o .   . + U o V = .           o > 3 N > =     "
};
