/* XPM */
static char *_604_73e2583a960ed5be3bdd78d4c2af3778cc07995328de6aa0ce18d34e563ac5e1[] = {
/* columns rows colors chars-per-pixel */
"64 64 210 2 ",
"   c #010101010101",
".  c #020202020202",
"X  c gray1",
"o  c #040404040404",
"O  c gray2",
"+  c #060606060606",
"@  c #070707070707",
"#  c gray3",
"$  c #090909090909",
"%  c gray4",
"&  c #0B0B0B0B0B0B",
"*  c #0C0C0C0C0C0C",
"=  c gray5",
"-  c #0E0E0E0E0E0E",
";  c gray6",
":  c #101010101010",
">  c #111111111111",
",  c gray7",
"<  c #131313131313",
"1  c gray8",
"2  c #151515151515",
"3  c #161616161616",
"4  c gray9",
"5  c #181818181818",
"6  c #191919191919",
"7  c gray10",
"8  c #1B1B1B1B1B1B",
"9  c gray11",
"0  c #1D1D1D1D1D1D",
"q  c #1E1E1E1E1E1E",
"w  c gray12",
"e  c #202020202020",
"r  c gray13",
"t  c #222222222222",
"y  c #232323232323",
"u  c gray14",
"i  c #252525252525",
"p  c gray15",
"a  c #272727272727",
"s  c #282828282828",
"d  c gray16",
"f  c #2A2A2A2A2A2A",
"g  c gray17",
"h  c #2C2C2C2C2C2C",
"j  c #2D2D2D2D2D2D",
"k  c gray18",
"l  c #2F2F2F2F2F2F",
"z  c gray19",
"x  c #313131313131",
"c  c #323232323232",
"v  c gray20",
"b  c #343434343434",
"n  c #353535353535",
"m  c gray21",
"M  c #373737373737",
"N  c gray22",
"B  c #393939393939",
"V  c #3A3A3A3A3A3A",
"C  c gray23",
"Z  c #3C3C3C3C3C3C",
"A  c gray24",
"S  c #3E3E3E3E3E3E",
"D  c #3F3F3F3F3F3F",
"F  c gray25",
"G  c #414141414141",
"H  c gray26",
"J  c #434343434343",
"K  c #444444444444",
"L  c gray27",
"P  c #464646464646",
"I  c gray28",
"U  c #484848484848",
"Y  c #494949494949",
"T  c gray29",
"R  c #4B4B4B4B4B4B",
"E  c #4C4C4C4C4C4C",
"W  c gray30",
"Q  c #4E4E4E4E4E4E",
"!  c gray31",
"~  c #505050505050",
"^  c #515151515151",
"/  c gray32",
"(  c #535353535353",
")  c gray33",
"_  c #555555555555",
"`  c #565656565656",
"'  c gray34",
"]  c #585858585858",
"[  c gray35",
"{  c #5A5A5A5A5A5A",
"}  c #5B5B5B5B5B5B",
"|  c gray36",
" . c #5D5D5D5D5D5D",
".. c gray37",
"X. c #5F5F5F5F5F5F",
"o. c #606060606060",
"O. c gray38",
"+. c #626262626262",
"@. c gray39",
"#. c #646464646464",
"$. c #656565656565",
"%. c gray40",
"&. c #676767676767",
"*. c #686868686868",
"=. c DimGray",
"-. c #6A6A6A6A6A6A",
";. c gray42",
":. c #6C6C6C6C6C6C",
">. c #6D6D6D6D6D6D",
",. c gray43",
"<. c #6F6F6F6F6F6F",
"1. c gray44",
"2. c #717171717171",
"3. c #727272727272",
"4. c gray45",
"5. c #747474747474",
"6. c gray46",
"7. c #767676767676",
"8. c #777777777777",
"9. c gray47",
"0. c #797979797979",
"q. c gray48",
"w. c #7B7B7B7B7B7B",
"e. c #7C7C7C7C7C7C",
"r. c gray49",
"t. c #7E7E7E7E7E7E",
"y. c gray50",
"u. c #808080808080",
"i. c #818181818181",
"p. c gray51",
"a. c #838383838383",
"s. c #848484848484",
"d. c gray52",
"f. c #868686868686",
"g. c gray53",
"h. c #888888888888",
"j. c #898989898989",
"k. c gray54",
"l. c #8B8B8B8B8B8B",
"z. c gray55",
"x. c #8D8D8D8D8D8D",
"c. c #8E8E8E8E8E8E",
"v. c gray56",
"b. c #909090909090",
"n. c gray57",
"m. c #929292929292",
"M. c #939393939393",
"N. c gray58",
"B. c #959595959595",
"V. c gray59",
"C. c #979797979797",
"Z. c #989898989898",
"A. c gray60",
"S. c #9A9A9A9A9A9A",
"D. c #9B9B9B9B9B9B",
"F. c gray61",
"G. c #9D9D9D9D9D9D",
"H. c gray62",
"J. c #9F9F9F9F9F9F",
"K. c #A0A0A0A0A0A0",
"L. c gray63",
"P. c #A2A2A2A2A2A2",
"I. c gray64",
"U. c #A4A4A4A4A4A4",
"Y. c #A5A5A5A5A5A5",
"T. c gray65",
"R. c #A7A7A7A7A7A7",
"E. c gray66",
"W. c #A9A9A9A9A9A9",
"Q. c #AAAAAAAAAAAA",
"!. c gray67",
"~. c #ACACACACACAC",
"^. c gray68",
"/. c #AEAEAEAEAEAE",
"(. c #AFAFAFAFAFAF",
"). c gray69",
"_. c #B1B1B1B1B1B1",
"`. c #B2B2B2B2B2B2",
"'. c gray70",
"]. c #B4B4B4B4B4B4",
"[. c gray71",
"{. c #B6B6B6B6B6B6",
"}. c #B7B7B7B7B7B7",
"|. c gray72",
" X c #B9B9B9B9B9B9",
".X c gray73",
"XX c #BBBBBBBBBBBB",
"oX c #BCBCBCBCBCBC",
"OX c gray74",
"+X c gray",
"@X c gray75",
"#X c #C0C0C0C0C0C0",
"$X c #C1C1C1C1C1C1",
"%X c gray76",
"&X c #C3C3C3C3C3C3",
"*X c gray77",
"=X c #C5C5C5C5C5C5",
"-X c #C6C6C6C6C6C6",
";X c gray78",
":X c #C8C8C8C8C8C8",
">X c gray79",
",X c #CACACACACACA",
"<X c #CBCBCBCBCBCB",
"1X c gray80",
"2X c #CDCDCDCDCDCD",
"3X c #CECECECECECE",
"4X c gray81",
"5X c #D0D0D0D0D0D0",
"6X c gray82",
"7X c None",
/* pixels */
"7X7X7X7X7X7X7X7X7X7X7Xz.Y.H.h.K.B.E.T.E.^.u.T.e.J 3 8 X s.O.8.D.~.OX=X+X:X1X<X:X4X=X[.~.I.1X=X`.1.R.f.,.8.7X7X7X7X7X7X7X7X7X7X7X",
"7X7X7X7X7X7X7X7XJ.T.Z.! s.t.# k C.L.C.P.N.8.[.l.7 d.} u c.5.s.h.). X_. X&X:X@X@X2X,X:Xk.E.;X$X_.Y.4X_.%X>XoXXX4X7X7X7X7X7X7X7X7X",
"7X7X7X7X7X7XN.e.C.N.B.7.S.s.= z E K.W.(.V.W w.XXV j.N.w A.3.8.^. X|.I.].2X1X,X&X:X#X=X2.$X2X&X).h.>X]..XE.$X,X=X3X>X7X7X7X7X7X7X",
"7X7X7X7X7X4.v.3.N.v.u.p.z.V.~ T j.D.L.H.L.P J.U.}.9.E.O d.X.s.N./.&X$X).3X>X>X1X:X`.N.u.W.<X$X$X_.%X>X}.~.oX,X,X6X<X6X7X7X7X7X7X",
"7X7X7X7XL.X.A.p.l.5.Y.Y.T.N.e.9.m.N. XV./.9.! v.S.H.{.$ S.w.v.y.*.~.{.~.U.!.i.:.m.b.r.N.c.Y.+X3X:X{.#Xh.~.n.`..Xt.@XXX5X7X7X7X7X",
"7X7X7X~.K.}.].c.Q.w.%.0.` - m 0.n.j.T.A.b.>.r.r.c.b.!.5 v.R B.J.y.=X}.I.A./ L J.}.C.^.k.u.~.F.P.a.L.l.t.v.p.a.O.5 :.V.<.M 7X7X7X",
"7X7Xw f F C t s 2 ; 5 7 > F @.9 u 4 J z B Y L ^  .+.f m p.i.X.0 Z z B C 4 z y q 6 , $ # . . . . X X X . @ @ 6 7 S 0 2 i m Z 7X7X",
"7X7X0 y U P F &.D ' ` F t.o.7.H K Y c p n R z { / [ W G.@.k.^ ] ( [ / I R U +.W ' U _ X.L {  .W +.' O.&.[ U ! A ! { ' S R $.7X7X",
"7X6 H Y l X.A R N U D L U %.c.t.k.k.N.g.c.{.R.L.~.c.1.t.w.;.{ ^ H ! m Q j S *.( S F #.V x I ` ! -.R ) H i Y K U 2.A 9 v ..p J 7X",
"7Xq.x.u.] K.,.O.O.@./ &.<.3...+.I P ) *.^ o.@./ %.,.t.~ ~.f.8.M.Y.G._ J N u.Q ! 7 $._ $.h.x...] 1.-.x.4.y.:.4.V.s.d.0.,.y.&.S 7X",
"7XT c.1.~ _ s.!.].`.{.OXL.U.z.!./.a.V.M.v.E.].V.K.S.G.` d.%.P._.~.f.C *.>.) -.L 6 [ d.] B.I.1.*.p.8.J 4 *.<.E.T.W.w.G.9.O.0.@.7X",
"a._ I.X.a.7.%.` b.>XXXY._ Q [ G.].).j.{.H.F.I.n.k.v.M.X.q...D.!.R.A.&.i.C.z.p.) 0 | } h ~.N.&.n.!.a.7 o.` O.v.!.I.m.7.W x -.r.*.",
"a.O.W.3.V.S f.C.#X:X7.' _ #.P.}.!.!.8.K.L.T.R h.H.z.2.$.4.) 8.P.c.u.y.e.V.L.y.6.T j ^ A 7.n.;.f.R.H.] t.6.=.B.l.%.n.l.l.<.7.y.-.",
"4.y.r.n.R 1.d.i.p.w.w.3.m.XX].).P.f.9.T.K.J.A.' a.{ } b.y.Z.Y.K.z.O.e.p.G.Q.G.F.^ l 9.N v.7./ t.C.M.) x.>.<.7.d.e.1.j.j.0.6.d.b.",
"p.6.<.F.y.7.e.K.A.s.2.oX}.XX XF.W.T.4.>.M.v.T.F.S.b._ @.M.}.[.J.V.b.V.x.Z.!.R.Z.2.f 2.E C.6.| { q.o.<.7.1.+.k.r.O.J v.V.9.c.a.l.",
"v.-.&.D.r.^ 0.g.-.V.u.V. X+XXXoXG./.F.B...v.W.P.V.C.T S.I.W.E.6.h.n.6.>.T.).P.g.q.0 W } z.2.+.y.9.| #.^ F @.9.b.N.3.5.^ d.z.( ] ",
"B.$.+.y.3.P >.:.R.Y.1.2.|.E.XX|.N.R.R.i.W Y.Q.T.H.C.X.V.F.N.B.7.+.U.#.1.`. X).b.c 6 %.-.r.r.9.x.t.| ( 8.o.! @.k.s.p.$.B.g.n.&.&.",
"g.i.} g.L 9 g Q Y f.~ {.E. XD.<.I >.:.i.&.L.^.M.D.z...V.h.N.Q.j.w.y.Z.B.9.W.c.Z T T ) Y ! @.( :.g.a.d.! N I U ^ N E <.t.4.b w M ",
"l.9.4.C.4.E g M j Z m >.k.'.I.b.*.>.y.e.! J K t h N h J _ A D $ k w q r e s B M U o.G y b e j v n c s y 0 = ; o . . X & 5 % + = ",
"F =.R I b < 9 u ! U o X X . X . . X . . X X O o . X + $ % @ & 8 = o # > r P * $ 7 1 , n @.R ; @ # 1 > - 4 q 6 1 k k u u 4 ; 9 ^ ",
";.a.&.q.9.1.9.x.s.>.d.3.2.[ Z ! Z S D Y h L A y v Y ;.,.=...2.1.a.t.M.g.k.3.q.a.A.A.S.K.B.N.w.! v.5.O.z.1.u.7.:.;.I h. .+.v.0.<.",
";.<.%.P o.h.a.,.` F y M [ <.X.n.w.b.g.-.3.O. .#.$.| X.J F ( Q X.%.....:.) W :.S  .9.o.! W V ^ ( L.>.{ ` E ) >.~ i.0.m.9.[ S.H.-.",
"| ' <.^ +.P G l >.Y H $.W B 1.#./ 3...) M P R | (.,.R.T.s.f.] =.C.S.J.$.F K ' u ' 3.0...O.( o.1.z.A M.6.n.s.] ~ ,.g.n.V.' J 4.Q ",
"7.7.<.[ d._ n a h m [ F R ~ 4.l.( | ! O.T H y D T.8.Y.!.C.<.,.+.a.A.V.#.e e M <.6.R.V.r.6.[ 6.6.v.} Y w.E.A.I.C.I.A.b.OXa z D q ",
"x.V.;.0.q.:.4.A ~ ;.;.H *.e.) <.Z D ! #.3.' a G t.r.[ x.5.@.t.U N.B.C.9.T 7 w ^ $.T.8.l.0.0.e.c.Z.| p.t.B.v.D.8.q.w.v./.p a G O.",
"8./ J +. .^ [ ` t._ Y #.>.^ P ] #.K  .1.4.,.q Y 5.c.].l.E %.i.<.m.a...c.t.1.2.-.s./ O.q. .,.g.V.r.n ! q.a.!.S.8.S.M.!.Q.H.W.0.d ",
"2.t.[ X.6. .y...] i.w.Z U 8.;.,.} Q _ / #.o.0 ~ d.c.[ c.%.5.3.<.,.a.5.s.a.8.j.j.i.*.S +.{ ,.z ^ ~ m.M.T.L.z.A.c.y.M.E.{.<XXX] s ",
"t.e.g.z.i.h.r.t.a. .=.#.8.Z.%.<./ $.O.*.r.6.< :.v.N.7.e.;.s.a.c.7.B.B.i.s.&.a.a.m.D.2.q.8.2.] S f.V.q.C.T.q.B.v.g.D.{.8.OXE.s.i ",
"A.| 4.l.-.i.,.:.Z._ p.q.x.J.e.=.! 5.[  .9.+.w X.l.M.| | 4.h.b.k.9.v.m.5.C.1.d.a.e.b.<.O.> $...h 9.P.b.V.A._.] R.u.s.~./.(.1X).d ",
"I.>.v.9.h.v.i.6.#.J h.t.:.*.r._ T s.p.<.3.X.j <.d.x.O.b +.d.n.V.G.x.Z.v.J.E.n.k.4.F.<.+.;.v.f.^ 6.x.S.K.m.K.M.e.s.h.K._.S.(.I.G ",
"u.w.h.q.0.t.g.$.> , &.t.a.j.#.4.:.d.s.a.p.) w q.z.D.{ u.0.*.e.y.p.t.h.G.1.u T p.z.B.5.E u.B.,.R q.t.g.2.=.&.T 7.G X.<.q.i.*.H G ",
"b j r S '  .+ $ 3 y - n H L n 7 l v N I ..J p.w h.x.x E a k V j j c S E m o.{ C f h q = - ; o $ > O @ 1 = = r @ 5 : w S q p k / ",
"; * + # $ $ 6 T Y E _ A k y n D h ! s.4.o.=.H :.*.G.g * ~ n.} $.1.,./ p 4 R P S 0 # + 2 o X = j e Z g w > p Z x J ~ .._ C  . .y.",
"P z n ~ Z [ { 4.:.&.>.6.+.,.T +.O.H.v.s.y.t.z.s.f.C.K.+XJ.-.u.e.8.t.3.3.p.>.B.>.h.s.!  .5.%.R.,.g.n.:.k.r.q.1.1.0.,.3...;.$.<.X.",
"D | &.@.{ y.>.~ ..@.| ' *.{ T %.8.o.#.@.W H P C &.Q ( #.2.y.` f A T E r i q.h l a T E ;.;.r.1.} L 8.i.A.n.g.t.B.U.R.`.^.'.W.I.m.",
"J #.W +.( f.p.2.7.O.+.0.<.7.i.>.s.l.y.,.j.i.e.N.e.s.f.t.1.H X.o.! W %.i.3.S.M.N.J.G.} <._.~ z.Z $.-.g.!.Y.R.Z.N.`.{.@X).A.].oX!.",
"5.M p.m.,.:.4.:.-.,.o.4.1.#.i.o.0.j.5.,.c.0.w.s.i.l.w.q.0.8.Y.<.^ { u.u.a.9.u.h.v.p.` R M.^ 1.6.f.h.k.!.H.f.1.h.N.j.^.n.T.'. X@X",
"t.S o.Z.f.} *.0.' ..%.&.2.7.:.1.) 7.;.;.t.j.9.q.8.a.=.5.A.Y.R.,.@.d.p.r.8.+.k.y.t.e. .N W.2.c.o.V.J.g.h.y.' #.u.G.H.E.Q.`.n.n.{.",
"{.%.c.g.f.e.) ( =.v %.4.7.,.2.y.u.f.[ e.g.a.8.q.1.k.<.l.H.C.R.! w.u.9.3.9.o.h.d.5.k.B B T.n.n.b.J.C.t.d.q.1.w.y.U.C.(.{.%X.XN.%X",
"|.^ W.C.6.u.g.0.<.>.9.3.{ i.y.n.c.e.! j.i.a.g.i.g.t.3.l.a.0.<.s w.>.w.r.=.] u.<.4.r.I t G.v.F.d.T.v.Z.k.Z.f.k.i.H.I.{.|.#X'.@X$X",
"P.0.0.r.s.b.+.i.4.&.6.6.O.q.-.v.N.>.} 0.j.;.t.3.h.h.0.g.q.V.+.{ ;.y.u.:.9.o.g.o.i.4.8.M ~.v.M.l.I.R.D.S.^.P.Y.B./.^.|.x.].R.OX*X",
"M.F +.f.f.s.,.<.} ] >.i.k.+.>.h.%.p.( i.e.,.r.h.t.u.q.b.H.V.T =.$.y.e.q.*.+.h.9.q.y.4.h L.8.a.g.'._.P.D.[.Q.}.W._.R./.l.K.)._.H.",
" X%.=.&.z.y.7.B.0.5.0.t.+.>.F t 8 t %.y.u.8.7.;.i.w.s.n.p.8 N x.+.a.u.7.9.-.0.5.r.7.p r T.6.S.s.!._.`.Q.).b.oXE.!.W.'.F.v.|..XoX",
"I.] X.u.l.:...>.o.} o.=.! F P , V =.Y A ! I R K H ^ ) :.W X c ) A ] ^ P W T @.*.*.! v K B.2.j.s I J z 5 2 1 6 ; < ; > > j N b V ",
"' Z e.7.g.3.6.r B l 8 z d 2 8 K $.B 6 ; : * t 1 > , > X O s %.X . . + 3 > & 2 5 - = @ ! %.%.<.P u q g Z { T m Q V A b 5 4 $ & 5 ",
"` &.) ) s.x.7.-.-.1.=.K A r Y F ! [ F L H E A J L L J F H K U F E ( +.} $.>.1.=.9.i.n.n.R.c.l.l.e.c.e.g.w.d.a.6.r.-.@.} o...` A ",
"Q.K.!.4.!.w.V.X.2.j.S.f.(.<.9.'.Z.9.u.5.v.[ c.<.#.&...@.A U Q &.+.H T ' %.V =.@.#.*.=.e.*.>.@.<.7.r.T =.6.-.2.8./ #.@.m.V.r.u.:.",
"%.=.3.4.i.7.5 7 b u ) ,.r.t.'.L.b._..XR.6.&.Z.M.t. .n.k.7 F  .j.} c.l.6.9.7.Y.A.e.r.6.8.s.e.u.-.a.0.` =.u.u.p.k.C.e.y.z.z.1.4.1.",
"B.s.Y.>.D.5.$.5.r.h.k.i.@.~ w.t.6.o.4.4.9.<.+. .i.h.;.; @ +.F t.].K..X!.j.c Y X.n.}.{.J.^.W.E.'.W.0.#.P.!./.].Q.+X`._ Y.E.C.j.u.",
"G.6.;.7.f.u.w.<.>.q.2.q.5.! o.7.5.| q.;.-.[ ] 3.r.#.3.k X i ;.q.Z.U./.I.7.2 l H t.E.!.T.^.!. X#X1X4.c.Y.^.K.g.5.^.a.E.8.$.) %.2.",
"<.} 4.t.:.3.3.;.;.5.<.3.( $.-.] =.` 6.#.>._ ` 3.' #.1.k . s r.<.T c.J.).}.F.j 7 < y.U.Q.n.A.%XoXXX6.S.S.!.T.K.<.#.%.%.Y M E ^ 2.",
"i.+.=.9.#.6.q.%.@.4.O.+.Q 0.>.&.W G ~ } { } ] =.@.:._ 5 . 6 $.@.t.S.G.Y.|.w.9 K b z.K.B.1.E.`.!.~.O.v.b.J.z.2.y.A.T.a.1.*.k 1.3.",
"7.3.<.>.X.&.<.<.O.$.^ @.Y 7.-.:.;.v -.#.~ T / ` X. ._ t   & ..-.C.S.U.!._.d %.$.d.S.N.S.0.^.b.J.Q.! y.x.f.=.h.x.c.[ r L z s s J ",
"7Xe.3.6.[ <.2.+.o.+.:./ g :.*.,.#.L $.-.*. .^ o.*.$.-.i . > -.=. XW.U.I.a.l.s.n.e.O.y.} ` w.w.5.' { >.w.$.b.8.g.] S P b d M h 7X",
"7X;.=.| ] 1.w.X.8.4.;.I / ,.<.:.O.~ #.,.) / T #.o.#.>.W < x V.C.[.~.!./.|.S.F.v.a @.-.#.' 5._ R Z %.4.s.p.r.r.) y.w.L o.<.R o.7X",
"7X>.2.<.[ 4.,.X...%.&.M / ' 3.&.;.W ` :...' I { { $.*.n X ' 5.y._.).{.'.%XXX_.5.>.l.J.W.;...*.K ,.i.2.y.0.r.#. .k.M.| 0.D.M.p.7X",
"7X7Xt.6.^ 5.y.o.@.7.C m Q  .X.} { L Y ( E P G T ) _ W ] O } 8.g.].5./.)..Xz.E.L.N.G.h.;.N h E ] z.9.0.v.y.@.q.g.2.D 9 :.B.I.7X7X",
"7X7XO.D A T l - 9 2 & x u 5 > < * % * % @ # = < < 0 4 3 5 y.3.6.t p w 9 f p e 5 1 5 > - ; , , 9 & X # + o O = > = 9 q < # = 7X7X",
"7X7X7XX X . X O : o - * 6 = 9 u * 2 1 < 5 r w t s z N B x 5.X._ W R M ^ ' I H Y C C N u b 7 w p 7 4 3 * 4 = # z W &.o.Y ~ 7X7X7X",
"7X7X7X7Xa.%.O.>.0.o.>.:.=.k.y.7.:.q.e.u.0.y.6.1.c.0.d.-.p.d.r.&.7.u.%.<.&.X.2.5.%.7.{ s.6.8.,.*.` ~ q.%.] / 0 F.^ ! N { 7X7X7X7X",
"7X7X7X7X7X9.7.e.e.k.h.F i %.H ,.u.Z.Z.G.p.8.R.T.Y.P.V.g.W.y.J.l.y.p.S.0.<.j.G.7.c.P.L.p.R.H.~.u.E.~. XS.4.Q } 3.).j.n.7X7X7X7X7X",
"7X7X7X7X7X7X).$X|.^.[._ 2 / W S.}.@XXXD.(.d.t.C.N.h.).#Xc.XXE.^.#XZ.[.$.x h.w.O.S.I.!.#X&X^.oXXX,X}.$X%.V 8 &.w.!.N.7X7X7X7X7X7X",
"7X7X7X7X7X7X7X7X#X{.'.@.X f M p.|.=X<X<X3X=X2X|.T.l.'.2X6XI.=X3X:X%X&X@Xv 8.:.D.V.{.Q.=X1X>XoX2X,X=X2X!.l O &.-.7X7X7X7X7X7X7X7X",
"7X7X7X7X7X7X7X7X7X7X7Xo.X C c L.R.I.XX&X>X1X#X).XX-Xe.(.*XY.&X].[.Q. X^.E i l.T.B.XX{._.=X:X=X^.oX:X1X+X( 7X7X7X7X7X7X7X7X7X7X7X"
};
