/* XPM */
static char *af00f6fcab304601d736720f55c39dc2QMXSqcWqC577YOOy[] = {
/* columns rows colors chars-per-pixel */
"64 64 52 1 ",
"  c #060606",
". c #090909",
"X c #0C0C0C",
"o c gray7",
"O c gray9",
"+ c #181818",
"@ c #1D1D1D",
"# c gray14",
"$ c gray15",
"% c gray19",
"& c gray21",
"* c #3A3A3A",
"= c #414141",
"- c #444444",
"; c #494949",
": c #4E4E4E",
"> c gray33",
", c gray39",
"< c #656565",
"1 c gray42",
"2 c #6C6C6C",
"3 c gray45",
"4 c gray46",
"5 c #797979",
"6 c #7C7C7C",
"7 c #838383",
"8 c gray53",
"9 c gray54",
"0 c #8D8D8D",
"q c gray59",
"w c #9B9B9B",
"e c gray63",
"r c #A5A5A5",
"t c gray66",
"y c #ACACAC",
"u c #B2B2B2",
"i c gray71",
"p c #BBBBBB",
"a c gray74",
"s c gray77",
"d c #CDCDCD",
"f c #D2D2D2",
"g c gray85",
"h c #DDDDDD",
"j c gray88",
"k c #E4E4E4",
"l c gray91",
"z c gray93",
"x c gray94",
"c c #F4F4F4",
"v c gray98",
"b c white",
/* pixels */
"hhhhjjhjjhjjjjjjjkjjkjjkkkkkkkkkkkkkkkklklkkklkkkkkkkkkklkklkklk",
"hjjjjjjjjjjjjkjkjjkkkkkjkjkkkkkkkkkklkkkkklklklkllkllklkkllkllll",
"jjjjjjjkjjkjjjkjkkkkkkkkkkkkkklkkkkklklkkllkkklklklkklklllkllllk",
"jjjjjjjjjjjkkkkkjkkkkkkkkkkklkkklkllklkllkllllllllllllllllllllll",
"jjjkjkjjkjkkkjkkkkkkkkkkklklklkllkllllllllklllllllllllllllllllll",
"jjjkkjkkkkkkkkkkkkklkllkkllkkllklllllllllllllllllllllllllzlllllz",
"kjjjkjkkkkkkkkklkllklkkllklllllllllllllllllllllllllllllllllllllz",
"kkkkkkkkkkkklklkklklllllllllllllllllllllzllzllllllzllzzllzzlzlzl",
"kkkkkkkkkkklkklllklllllllllllllzllzlllllzllzzlzzzllzzllzlzlzllzl",
"kkkkkklkkllkllkllllllllllzllzlllllzlzlzllzzlllllllzlllzllzzlzzzz",
"klkllkkllllllllllllllllllllllllllzlzlzllzllzlzzlzzzlzzlzzzzzzllz",
"lkklkllllklklllllllzlllzllzllzzlllzllzzzlzlzzzlzzlzlzlzzzllzzzzz",
"kklllllklllllllllllllllzzlzllzlzzzzlzllzzzzzlzzzzzzzlzzlzlzzzzzz",
"llllllllllllllllllzlzlzllzzzzzzlzlzzzzzzzzzzzzlzlzzlzzzzzzzzzzzz",
"lkllllllllllllzllzlllzzllzlzzlzzzzzlzzlzlzzzzzzzzzzzzzzzzzzzzzzz",
"lllllllllzzllzlzzlzzlzzlzzlzzzlzzlzzzzzzzzzzzzzzzzzzzzzzzzzxzzzz",
"llllzllzllzzlzlzlzlzlzlzzlzzzlzzzzzzzzzzzzzzzzzxzzxzxzzzxzzzxxzz",
"llllllzlzlllzlzzzlzzzzzzzzzzzzzzzzzzzzxzzxzxxxzzxzxzzzxzxzxzzzzx",
"llzlzllllzlzzzllzzzzzzzlzzzzzzzzzxzzzzxzzxzzzzxzzzzzzxzzzzzzxzxx",
"zllzlzlzzlzzlzzzlzzlzzzzzzzzzzxzzzxzzxzzzzxzzxzzxxxxzxxxxxxxxxxz",
"zlzlllzzzlzllzzlzzzzzzzzzzzzzzzxxxzzzzxxxzxxzxxxxzzxxzzxxxxzzzxx",
"llzlzzzllzzzzzzzzzzzzzzzzzzxxxzzzzzxxzxzxxxzxxzxxxxxxxxxzzxxxxzx",
"zzzzzzlzzzzzzzzzzzzzzzzzzxzxzzxzzxxxxxzxxxxzxzxzzxxzzxxzxxxxxxxx",
"zllzllzzzlzzlzzzzzzzzzzzzxzzzxzzxxzxzxxxzzxxxzxxxxxxxxxxzxxxxxxx",
"llzlzzzzzlzzzzzzzzzzzzzzxxzzzxxxzxxzxxxzzxxxzxxxxxxxxxxxxxxxxxxx",
"zzzzlzzlzzzzzzzzzzzzxzxzzzzxzxzxzxxzxzxxxxzxxxxxxxxxxxxxxxxxxxxx",
"zlzzzzzzzzzzzzzzzzzzxzzzzzzxzxxxxxxxzxzxxzxzxxxxxxxxxxxxxxxxxxxx",
"zzzlzlzzlzzlzzzzzzzzzzxxxxzzzxzzxzzxxxzxxzxxzxzxxxxzxxzxxxzxxzxx",
"lzlzzzzlzzzzzzzzzzzzzzzzzzzzxzxxzxxxxxzxxzxxxzzxxxzxxzxxxzzxxxzx",
"zlzzzlzzzzzlzzzzzzzzzzxzzxxzxzzxzxzxzxzxxzxzxxxxzxzxxzxzxxxxzxzx",
"zzzlzzlzllzzlzzzzzzzzzzzzzxzzzxzxzzzxzzxxxzxzxxzxzxxxxzxzxxzxzxx",
"lllzlzzlzzzzzzlzzlzzzzzzzzzzzzzzxzxzzzxzzxzxzzxzxxxzzxxxzxxzxxxz",
"lzlzzzlzlzlzlzlzzzlzzzzzzzzzzzzzzzzzzzzzzzxzzxzzxxzzxzzzxzzzxxzz",
"llllllllzlzzlzlzzlzzlzlzzlzzlzzzzzzzzzzzzzzzzzxzzzzxzzxzxzxzzzzx",
"lllllllllllllzzllllzlzzllzzzzzzzzzzzlzzzzzzzzzzzzzzzzzzzzzzzzzzz",
"lkklklllllllllllllllzlzlllllzllzlzlzzzlzzlzzzzlzlzzzzzlzzzlzlzzz",
"kkkkkllkkllllllllllllllllzllllzlzlzllzlzzlzzzlzlzzzlzzzzzzzlzzzl",
"kkkkkkkkkkkkkkklllkllllllllllllllllllllllllllzlzllzlzllzzlzzzlzl",
"jjjkjjkjkkkkkkjkkkkkklklkkllllkllkllkllllllllllllzlzllzzlzlzlzzl",
"jhjhjjhjhjjjjjzlkkkkkkkkkkkkkkkkkkkkllkllkklllllllllzzzlzzzzzzzl",
"hkjkjjllzkjjlzrakhhhjjjhhjjkkljjjjjkjjkkjjkkkkkklklzllzzzxzzczll",
"-espdptuqifae4*%fxlzzklzzlkjgszzxxxlxzzxcxzxxzxvcvcjbbbvbbbchbbv",
"XO+O#@XO.+#+Xo&#2914<:2q6>=&*#;3760>,8<15wuausp3560:7w9=4at,&wye",
"++oOooOO+ooo++X+... ......XXXO. ...X.X...X+OXOO ...o . ....XoX..",
"oOOo+OoOOOOOOOOoOO+++O++OOOOOOO+O++O+OO++OooOoo+OOOO+O+OOOOOOOOO",
"OoOOo+oOoOoOooOOOoOoOooOOooOooOooOoOoOoOoOOOoOOoOoOooOOoOooOOooo",
"oOoOOooOoOOooOOooooOoOOoOoOoOoOoooOoooOoooOoOOoOoooooooooooooooO",
"oooOooOooOooOoooOooOoooooooOooooOoooOoooOooooooooOooooOooooooooo",
"oOooooOooooOoooooooooOoooooooooooooooooooooooooooooooooooooooooo",
"oooooooooooooooooooooooooooooooooXoooXooooXoooXooooooooXooXooooX",
"XoooooXoooooooooooooooooooooooXooooooXoooXoooXooooXooooXoooooooX",
"oooXXooooXoXXoXoooXoXoXoXooXXoooXXXoXoXoXoXoXoXoXXoXXoXoXXXoXXoX",
"XoXoXoXoXooXooXoooXXoooXXoXoXooXoXoXoXXXXoXooXXoXXoXXooXXoXXXXXo",
"XXoXXXoXoXXoXXXXXXXoXXXoXXoXXXXXXXXXXXXoXXXXXXXXoXXXXXXXXXXXXXXX",
"XXoXXXoXXXXXXoXXXoXXXXXXXoXXXXXXXXXXXXXXXXXXXXXXXXXXXXXXXXXXX..X",
"XXXXXXXXXXXXXXXXXXXXXXXXXXX.XX.X.XXX.XX.XX.XX.XX.XX.XX.XXXX.XXX.",
"XXXXXXX.X.XXXXX.X.XXXXX.XXXX.....X.X..X....X..X.X...X.........X.",
"........X.....X.......X.....XX.....X............................",
".X..............................................................",
".................................................. ... .........",
"....................... . ... ...  ... ...   ...... . .. ...  ..",
".. . .... .... ... .  ..... . . ...... . .....  . ... . ..  ... ",
". .. .... . . ... . .. .... .. . .. . .. .... .. . ...... ......",
"... ..  ... ... . ... ..  .. ... .. ... ..  .. ... . ...... .. ."
};
